<?xml version="1.0" encoding="utf-8"?>
<!-- Generator: Adobe Illustrator 17.0.0, SVG Export Plug-In . SVG Version: 6.00 Build 0)  -->
<!DOCTYPE svg PUBLIC "-//W3C//DTD SVG 1.1//EN" "http://www.w3.org/Graphics/SVG/1.1/DTD/svg11.dtd">
<svg version="1.1" id="Layer_1" xmlns="http://www.w3.org/2000/svg" xmlns:xlink="http://www.w3.org/1999/xlink" x="0px" y="0px"
	 width="1000px" height="500px" viewBox="0 0 1000 500" enable-background="new 0 0 1000 500" xml:space="preserve">
<rect x="-39.883" y="-10.897" display="none" fill="#141327" width="1064.947" height="520.474"/>
<g opacity="0.3" enable-background="new    ">
	<g>
		<g>
			<defs>
				<rect id="SVGID_1_" x="-38.486" y="-8.996" width="525.499" height="517.999"/>
			</defs>
			<clipPath id="SVGID_2_">
				<use xlink:href="#SVGID_1_"  overflow="visible"/>
			</clipPath>
			<g clip-path="url(#SVGID_2_)">
				<g>
					<g>
						<path fill="#25275E" d="M868.739-5.97c-0.659,0-1.295-0.272-1.745-0.747l-8.2-8.657c-1.977-2.086-3.065-4.806-3.065-7.66
							v-12.522c0-1.064,0.879-1.93,1.958-1.93h22.102c1.08,0,1.958,0.866,1.958,1.93v12.522c0,2.854-1.088,5.574-3.065,7.66
							l-8.2,8.657C870.034-6.243,869.398-5.97,868.739-5.97z M857.688-36.451c-0.5,0-0.907,0.401-0.907,0.894v12.522
							c0,2.59,0.987,5.059,2.781,6.953l8.2,8.657c0.511,0.539,1.443,0.539,1.954,0l8.2-8.657c1.794-1.893,2.781-4.363,2.781-6.953
							v-12.522c0-0.493-0.407-0.894-0.907-0.894H857.688z"/>
					</g>
					<g>
						<path fill="#25275E" d="M867.331-18.433c-0.592,0-1.185-0.218-1.644-0.656l-5.632-5.372c-0.939-0.895-0.964-2.371-0.056-3.296
							c0.908-0.927,2.406-0.949,3.344-0.054l3.943,3.761l7.076-7.12c0.915-0.92,2.412-0.933,3.344-0.034
							c0.933,0.901,0.948,2.377,0.035,3.297l-8.721,8.775C868.557-18.666,867.944-18.433,867.331-18.433z"/>
					</g>
				</g>
				<g>
					<g>
						<polygon fill="#25275E" points="433.071,13.826 335.279,-38.411 336.281,-40.233 430.258,9.967 407.614,-118.637 
							496.056,-66.247 585.644,-154.963 612.005,-38.299 706.266,-67.815 741.506,-136.062 807.605,-72.136 806.133,-70.657 
							742.079,-132.605 707.74,-66.102 610.453,-35.639 610.203,-36.744 584.427,-150.82 496.384,-63.635 410.471,-114.527 						
							"/>
					</g>
					<g>
						<ellipse fill="#25275E" cx="807.841" cy="-69.934" rx="5.577" ry="5.497"/>
					</g>
					<g>
						<ellipse fill="#25275E" cx="741.536" cy="-133.073" rx="5.576" ry="5.497"/>
					</g>
					<g>
						<ellipse fill="#25275E" cx="706.542" cy="-67.109" rx="5.577" ry="5.497"/>
					</g>
					<g>
						<ellipse fill="#25275E" cx="584.984" cy="-151.631" rx="5.577" ry="5.497"/>
					</g>
					<g>
						<ellipse fill="#25275E" cx="495.555" cy="-64.89" rx="5.577" ry="5.497"/>
					</g>
					<g>
						<ellipse fill="#25275E" cx="611.792" cy="-36.969" rx="5.577" ry="5.497"/>
					</g>
					<g>
						<ellipse fill="#25275E" cx="669.365" cy="22.59" rx="5.577" ry="5.497"/>
					</g>
					<g>
						<ellipse fill="#25275E" cx="554.339" cy="17.093" rx="5.577" ry="5.497"/>
					</g>
					<g>
						<ellipse fill="#25275E" cx="746.158" cy="21.514" rx="5.577" ry="5.497"/>
					</g>
					<g>
						<ellipse fill="#25275E" cx="837.019" cy="90.301" rx="5.577" ry="5.497"/>
					</g>
					<g>
						<ellipse fill="#25275E" cx="778.901" cy="130.041" rx="5.577" ry="5.497"/>
					</g>
					<g>
						<ellipse fill="#25275E" cx="681.218" cy="241.661" rx="5.577" ry="5.497"/>
					</g>
					<g>
						<ellipse fill="#25275E" cx="933.338" cy="180.354" rx="5.577" ry="5.497"/>
					</g>
					<g>
						<ellipse fill="#25275E" cx="930.064" cy="124.544" rx="5.576" ry="5.497"/>
					</g>
					<g>
						<ellipse fill="#25275E" cx="796.227" cy="250.553" rx="5.577" ry="5.497"/>
					</g>
					<g>
						<ellipse fill="#25275E" cx="867.378" cy="-8.139" rx="5.577" ry="5.497"/>
					</g>
					<g>
						<ellipse fill="#25275E" cx="951.756" cy="-42.466" rx="5.577" ry="5.497"/>
					</g>
					<g>
						<ellipse fill="#25275E" cx="641.517" cy="127.906" rx="5.577" ry="5.497"/>
					</g>
					<g>
						<ellipse fill="#25275E" cx="656.115" cy="-122.634" rx="5.576" ry="5.497"/>
					</g>
					<g>
						<ellipse fill="#25275E" cx="409.042" cy="-117.137" rx="5.577" ry="5.497"/>
					</g>
					<g>
						<ellipse fill="#25275E" cx="335.78" cy="-39.07" rx="5.577" ry="5.497"/>
					</g>
					<g>
						<ellipse fill="#25275E" cx="278.07" cy="17.093" rx="5.577" ry="5.497"/>
					</g>
					<g>
						<ellipse fill="#25275E" cx="296.079" cy="161.526" rx="5.577" ry="5.497"/>
					</g>
					<g>
						<ellipse fill="#25275E" cx="421.594" cy="106.927" rx="5.577" ry="5.497"/>
					</g>
					<g>
						<ellipse fill="#25275E" cx="493.611" cy="120.375" rx="5.577" ry="5.497"/>
					</g>
					<g>
						<ellipse fill="#25275E" cx="488.034" cy="209.671" rx="5.576" ry="5.497"/>
					</g>
					<g>
						<ellipse fill="#25275E" cx="457.201" cy="268.708" rx="5.577" ry="5.497"/>
					</g>
					<g>
						<ellipse fill="#25275E" cx="533.874" cy="278.391" rx="5.576" ry="5.497"/>
					</g>
					<g>
						<ellipse fill="#25275E" cx="598.951" cy="209.671" rx="5.577" ry="5.497"/>
					</g>
					<g>
						<ellipse fill="#25275E" cx="625.964" cy="288.276" rx="5.577" ry="5.497"/>
					</g>
					<g>
						<ellipse fill="#25275E" cx="431.348" cy="11.896" rx="5.576" ry="5.497"/>
					</g>
					<g>
						<polygon fill="#25275E" points="554.182,18.681 495.358,-64.347 497.082,-65.534 554.496,15.505 610.375,-37.596 
							655.18,-123.109 657.048,-122.158 612.083,-36.342 611.959,-36.223 						"/>
					</g>
				</g>
				<g>
					<polygon fill="#25275E" points="624.969,288.611 598.32,211.644 533.728,280.068 486.966,209.28 491.847,120.277 
						422.153,106.854 371.449,169.329 293.535,162.828 293.712,160.763 370.508,167.171 421.307,104.579 494.045,118.59 
						489.102,208.717 534.021,276.715 599.174,207.698 626.958,287.941 					"/>
				</g>
				<g>
					<polygon fill="#25275E" points="457.04,269.191 455.18,268.226 486.537,209.576 370.085,169.038 348.262,76.5 350.31,76.03 
						371.872,167.463 489.531,208.421 					"/>
				</g>
				<g>
					<polygon fill="#25275E" points="642.948,129.886 431.765,13.14 349.27,77.6 276.579,17.889 277.925,16.298 349.303,74.93 
						431.564,10.653 640.085,125.927 609.578,-40.143 671.009,22.499 744.565,20.406 705.581,-66.691 707.504,-67.528 
						747.749,22.388 670.143,24.597 612.881,-33.795 					"/>
				</g>
				<g>
					<polygon fill="#25275E" points="639.702,129.542 745.398,20.68 746.917,22.113 645.788,126.27 836.47,89.891 866.372,-7.372 
						868.384,-6.771 838.115,91.688 837.492,91.806 					"/>
				</g>
				<g>
					<path fill="#25275E" d="M861.912,200.36l-0.169-0.009l-135.134-7.559l203.587-69.669l4.254,58.01L861.912,200.36z
						 M737.33,191.316l124.363,6.957l70.536-18.697l-3.932-53.61L737.33,191.316z"/>
				</g>
				<g>
					<polygon fill="#25275E" points="837.735,91.729 836.85,89.85 943.8,40.883 950.708,-42.55 952.804,-42.381 945.795,42.254 
											"/>
				</g>
				<g>
					<polygon fill="#25275E" points="488.531,209.912 487.538,208.086 641.597,126.687 731.739,190.615 776.964,130.116 
						778.655,131.345 732.199,193.493 641.435,129.125 					"/>
				</g>
				<g>
					<polygon fill="#25275E" points="496.472,120.882 494.638,119.868 553.422,16.586 555.256,17.6 					"/>
				</g>
			</g>
		</g>
	</g>
	<g>
		<g>
			<defs>
				<rect id="SVGID_3_" x="-38.486" y="-8.996" width="525.499" height="517.999"/>
			</defs>
			<clipPath id="SVGID_4_">
				<use xlink:href="#SVGID_3_"  overflow="visible"/>
			</clipPath>
			<g clip-path="url(#SVGID_4_)">
				<g>
					<g>
						<polygon fill="#25275E" points="-174.029,486.289 -271.821,434.052 -270.82,432.231 -176.842,482.43 -199.487,353.827 
							-111.044,406.217 -21.456,317.5 4.905,434.164 99.165,404.65 134.405,336.401 200.504,400.328 199.033,401.807 
							134.979,339.859 100.64,406.361 3.353,436.825 -22.673,321.642 -110.716,408.829 -196.629,357.937 						"/>
					</g>
					<g>
						<ellipse fill="#25275E" cx="200.741" cy="402.53" rx="5.577" ry="5.497"/>
					</g>
					<g>
						<ellipse fill="#25275E" cx="134.436" cy="339.391" rx="5.577" ry="5.497"/>
					</g>
					<g>
						<ellipse fill="#25275E" cx="99.442" cy="405.354" rx="5.577" ry="5.497"/>
					</g>
					<g>
						<ellipse fill="#25275E" cx="-22.116" cy="320.832" rx="5.576" ry="5.497"/>
					</g>
					<g>
						<ellipse fill="#25275E" cx="-111.545" cy="407.573" rx="5.577" ry="5.497"/>
					</g>
					<g>
						<ellipse fill="#25275E" cx="4.692" cy="435.495" rx="5.577" ry="5.497"/>
					</g>
					<g>
						<ellipse fill="#25275E" cx="62.265" cy="495.053" rx="5.577" ry="5.497"/>
					</g>
					<g>
						<ellipse fill="#25275E" cx="-52.761" cy="489.557" rx="5.577" ry="5.497"/>
					</g>
					<g>
						<ellipse fill="#25275E" cx="139.058" cy="493.978" rx="5.577" ry="5.497"/>
					</g>
					<g>
						<ellipse fill="#25275E" cx="229.919" cy="562.765" rx="5.577" ry="5.497"/>
					</g>
					<g>
						<ellipse fill="#25275E" cx="171.801" cy="602.504" rx="5.577" ry="5.497"/>
					</g>
					<g>
						<ellipse fill="#25275E" cx="74.117" cy="714.124" rx="5.577" ry="5.497"/>
					</g>
					<g>
						<ellipse fill="#25275E" cx="326.238" cy="652.817" rx="5.577" ry="5.497"/>
					</g>
					<g>
						<ellipse fill="#25275E" cx="322.964" cy="597.007" rx="5.577" ry="5.497"/>
					</g>
					<g>
						<ellipse fill="#25275E" cx="189.127" cy="723.017" rx="5.577" ry="5.497"/>
					</g>
					<g>
						<ellipse fill="#25275E" cx="177.616" cy="477.197" rx="5.577" ry="5.497"/>
					</g>
					<g>
						<ellipse fill="#25275E" cx="260.085" cy="465.382" rx="5.577" ry="5.497"/>
					</g>
					<g>
						<ellipse fill="#25275E" cx="344.656" cy="429.998" rx="5.577" ry="5.497"/>
					</g>
					<g>
						<ellipse fill="#25275E" cx="34.417" cy="600.37" rx="5.577" ry="5.497"/>
					</g>
					<g>
						<ellipse fill="#25275E" cx="49.015" cy="349.83" rx="5.577" ry="5.497"/>
					</g>
					<g>
						<ellipse fill="#25275E" cx="-198.058" cy="355.327" rx="5.577" ry="5.497"/>
					</g>
					<g>
						<ellipse fill="#25275E" cx="-271.32" cy="433.394" rx="5.577" ry="5.497"/>
					</g>
					<g>
						<ellipse fill="#25275E" cx="-329.03" cy="489.557" rx="5.576" ry="5.497"/>
					</g>
					<g>
						<ellipse fill="#25275E" cx="-311.021" cy="633.99" rx="5.577" ry="5.497"/>
					</g>
					<g>
						<ellipse fill="#25275E" cx="-185.507" cy="579.39" rx="5.577" ry="5.497"/>
					</g>
					<g>
						<ellipse fill="#25275E" cx="-113.489" cy="592.839" rx="5.577" ry="5.497"/>
					</g>
					<g>
						<ellipse fill="#25275E" cx="-119.066" cy="682.134" rx="5.577" ry="5.497"/>
					</g>
					<g>
						<ellipse fill="#25275E" cx="-149.899" cy="741.172" rx="5.577" ry="5.497"/>
					</g>
					<g>
						<ellipse fill="#25275E" cx="-73.226" cy="750.855" rx="5.577" ry="5.497"/>
					</g>
					<g>
						<ellipse fill="#25275E" cx="-8.149" cy="682.134" rx="5.577" ry="5.497"/>
					</g>
					<g>
						<ellipse fill="#25275E" cx="18.864" cy="760.739" rx="5.577" ry="5.497"/>
					</g>
					<g>
						<ellipse fill="#25275E" cx="-175.752" cy="484.36" rx="5.577" ry="5.497"/>
					</g>
					<g>
						<polygon fill="#25275E" points="-52.918,491.145 -111.741,408.116 -110.018,406.93 -52.604,487.969 3.275,434.868 
							48.081,349.354 49.948,350.305 4.984,436.122 4.859,436.24 						"/>
					</g>
				</g>
				<g>
					<polygon fill="#25275E" points="17.869,761.073 -8.781,684.108 -73.372,752.531 -120.133,681.745 -115.253,592.741 
						-184.947,579.318 -235.652,641.793 -313.566,635.291 -313.388,633.227 -236.592,639.636 -185.793,577.043 -113.056,591.053 
						-117.998,681.18 -73.079,749.179 -7.926,680.16 19.859,760.404 					"/>
				</g>
				<g>
					<polygon fill="#25275E" points="-150.06,741.655 -151.92,740.689 -120.562,682.04 -237.015,641.503 -258.837,548.963 
						-256.79,548.494 -235.228,639.926 -117.569,680.885 					"/>
				</g>
				<g>
					<polygon fill="#25275E" points="35.848,602.348 -175.335,485.603 -257.83,550.063 -258.486,549.524 -330.521,490.353 
						-329.176,488.761 -257.797,547.394 -175.536,483.116 32.985,598.39 2.478,432.32 63.909,494.963 137.465,492.868 
						98.48,405.772 100.404,404.936 140.65,494.851 63.043,497.061 5.781,438.67 					"/>
				</g>
				<g>
					<polygon fill="#25275E" points="32.601,602.005 138.298,493.143 139.817,494.576 38.688,598.733 229.37,562.354 
						259.272,465.092 261.284,465.693 231.014,564.151 230.392,564.269 					"/>
				</g>
				<g>
					<path fill="#25275E" d="M254.811,672.823l-0.169-0.01l-135.134-7.559l203.586-69.669l4.255,58.01L254.811,672.823z
						 M130.23,663.78l124.363,6.956l70.535-18.696l-3.931-53.611L130.23,663.78z"/>
				</g>
				<g>
					<polygon fill="#25275E" points="230.635,564.192 229.749,562.313 336.7,513.346 343.608,429.914 345.703,430.082 
						338.696,514.718 					"/>
				</g>
				<g>
					<polygon fill="#25275E" points="-118.569,682.376 -119.562,680.549 34.498,599.151 124.639,663.078 169.863,602.58 
						171.555,603.808 125.099,665.956 34.335,601.587 					"/>
				</g>
				<g>
					<polygon fill="#25275E" points="-110.628,593.345 -112.461,592.331 -53.678,489.05 -51.845,490.064 					"/>
				</g>
			</g>
		</g>
	</g>
	<g>
		<g>
			<defs>
				<rect id="SVGID_5_" x="-38.486" y="-8.996" width="525.499" height="517.999"/>
			</defs>
			<clipPath id="SVGID_6_">
				<use xlink:href="#SVGID_5_"  overflow="visible"/>
			</clipPath>
			<g clip-path="url(#SVGID_6_)">
				<g>
					<g>
						<polygon fill="#25275E" points="294.429,585.15 293.83,583.163 396.293,553.156 288.028,478.003 388.147,453.402 
							387.855,328.227 490.185,392.346 535.664,305.776 511.625,232.954 604.221,232.084 604.242,234.156 514.511,234.998 
							537.935,305.958 537.732,306.343 490.995,395.308 389.967,332.004 390.254,455.021 292.996,478.918 401.05,553.924 						"/>
					</g>
					<g>
						<path fill="#25275E" d="M602.025,237.364c-2.178-2.147-2.178-5.627,0-7.774s5.709-2.147,7.886,0
							c2.178,2.147,2.178,5.627,0,7.774C607.733,239.51,604.203,239.51,602.025,237.364z"/>
					</g>
					<g>
						<path fill="#25275E" d="M509.848,238.933c-2.178-2.147-2.178-5.627,0-7.774s5.709-2.147,7.887,0s2.178,5.627,0,7.774
							S512.026,241.08,509.848,238.933z"/>
					</g>
					<g>
						<path fill="#25275E" d="M532.422,309.967c-2.178-2.147-2.178-5.627,0-7.774c2.178-2.147,5.709-2.147,7.886,0
							c2.178,2.147,2.178,5.627,0,7.774C538.13,312.114,534.6,312.114,532.422,309.967z"/>
					</g>
					<g>
						<path fill="#25275E" d="M385.836,334.929c-2.178-2.147-2.178-5.627,0-7.774c2.178-2.147,5.709-2.147,7.886,0
							c2.178,2.147,2.178,5.627,0,7.774C391.545,337.076,388.014,337.076,385.836,334.929z"/>
					</g>
					<g>
						<path fill="#25275E" d="M384.823,458.598c-2.178-2.147-2.178-5.627,0-7.774c2.178-2.147,5.709-2.147,7.886,0
							c2.178,2.147,2.178,5.627,0,7.774C390.532,460.744,387.001,460.744,384.823,458.598z"/>
					</g>
					<g>
						<path fill="#25275E" d="M487.045,397.322c-2.178-2.147-2.178-5.627,0-7.774c2.178-2.147,5.709-2.147,7.886,0
							s2.178,5.627,0,7.774S489.223,399.469,487.045,397.322z"/>
					</g>
					<g>
						<path fill="#25275E" d="M570.479,399.307c-2.178-2.147-2.178-5.627,0-7.774c2.178-2.147,5.709-2.147,7.886,0
							c2.178,2.147,2.178,5.627,0,7.774C576.188,401.454,572.657,401.454,570.479,399.307z"/>
					</g>
					<g>
						<path fill="#25275E" d="M485.2,475.596c-2.178-2.147-2.178-5.627,0-7.774c2.178-2.147,5.709-2.147,7.886,0
							c2.178,2.147,2.178,5.627,0,7.774C490.909,477.742,487.378,477.742,485.2,475.596z"/>
					</g>
					<g>
						<path fill="#25275E" d="M624.008,345.021c-2.178-2.147-2.178-5.627,0-7.774c2.178-2.147,5.709-2.147,7.886,0
							c2.178,2.147,2.178,5.627,0,7.774C629.716,347.168,626.186,347.168,624.008,345.021z"/>
					</g>
					<g>
						<path fill="#25275E" d="M737.601,330.329c-2.178-2.147-2.178-5.627,0-7.774c2.178-2.147,5.709-2.147,7.886,0
							c2.178,2.147,2.178,5.627,0,7.774C743.31,332.476,739.779,332.476,737.601,330.329z"/>
					</g>
					<g>
						<path fill="#25275E" d="M725.012,398.939c-2.178-2.147-2.178-5.627,0-7.774c2.178-2.147,5.709-2.147,7.886,0
							c2.178,2.147,2.178,5.627,0,7.774S727.189,401.085,725.012,398.939z"/>
					</g>
					<g>
						<path fill="#25275E" d="M736.009,545.952c-2.178-2.147-2.178-5.627,0-7.774s5.709-2.147,7.887,0
							c2.178,2.147,2.178,5.627,0,7.774S738.187,548.099,736.009,545.952z"/>
					</g>
					<g>
						<path fill="#25275E" d="M870.307,326.87c-2.178-2.147-2.178-5.627,0-7.774c2.178-2.147,5.709-2.147,7.886,0
							c2.178,2.147,2.178,5.627,0,7.774C876.016,329.017,872.485,329.017,870.307,326.87z"/>
					</g>
					<g>
						<path fill="#25275E" d="M827.957,289.689c-2.178-2.147-2.178-5.627,0-7.774c2.178-2.147,5.709-2.147,7.886,0
							s2.178,5.627,0,7.774S830.135,291.835,827.957,289.689z"/>
					</g>
					<g>
						<path fill="#25275E" d="M823.712,472.077c-2.178-2.147-2.178-5.627,0-7.774c2.178-2.147,5.709-2.147,7.886,0
							c2.178,2.147,2.178,5.627,0,7.774C829.421,474.224,825.89,474.224,823.712,472.077z"/>
					</g>
					<g>
						<path fill="#25275E" d="M688.452,239.561c-2.178-2.147-2.178-5.627,0-7.774s5.709-2.147,7.886,0
							c2.178,2.147,2.178,5.627,0,7.774C694.161,241.707,690.63,241.707,688.452,239.561z"/>
					</g>
					<g>
						<path fill="#25275E" d="M723.492,156.475c-2.178-2.147-2.178-5.627,0-7.774s5.709-2.147,7.886,0
							c2.178,2.147,2.178,5.627,0,7.774C729.201,158.622,725.67,158.622,723.492,156.475z"/>
					</g>
					<g>
						<path fill="#25275E" d="M626.335,493.188c-2.178-2.147-2.178-5.627,0-7.774c2.178-2.147,5.709-2.147,7.886,0
							c2.178,2.147,2.178,5.627,0,7.774C632.044,495.334,628.513,495.334,626.335,493.188z"/>
					</g>
					<g>
						<path fill="#25275E" d="M456.934,305.854c-2.178-2.147-2.178-5.627,0-7.774c2.178-2.147,5.709-2.147,7.886,0
							s2.178,5.627,0,7.774C462.643,308.001,459.112,308.001,456.934,305.854z"/>
					</g>
					<g>
						<path fill="#25275E" d="M286.171,481.955c-2.178-2.147-2.178-5.627,0-7.774s5.709-2.147,7.886,0
							c2.178,2.147,2.178,5.627,0,7.774C291.879,484.101,288.349,484.101,286.171,481.955z"/>
					</g>
					<g>
						<path fill="#25275E" d="M290.367,588.221c-2.178-2.147-2.178-5.627,0-7.774s5.709-2.147,7.886,0
							c2.178,2.147,2.178,5.627,0,7.774C296.076,590.368,292.545,590.368,290.367,588.221z"/>
					</g>
					<g>
						<path fill="#25275E" d="M289.849,668.159c-2.178-2.147-2.178-5.627,0-7.774s5.709-2.147,7.886,0
							c2.178,2.147,2.178,5.627,0,7.774C295.557,670.305,292.026,670.305,289.849,668.159z"/>
					</g>
					<g>
						<path fill="#25275E" d="M406.191,757.736c-2.178-2.147-2.178-5.627,0-7.774s5.709-2.147,7.886,0
							c2.178,2.147,2.178,5.627,0,7.774C411.9,759.883,408.369,759.883,406.191,757.736z"/>
					</g>
					<g>
						<path fill="#25275E" d="M455.777,631.643c-2.178-2.147-2.178-5.627,0-7.774s5.709-2.147,7.886,0
							c2.178,2.147,2.178,5.627,0,7.774S457.954,633.79,455.777,631.643z"/>
					</g>
					<g>
						<path fill="#25275E" d="M516.348,590.955c-2.178-2.147-2.178-5.627,0-7.774s5.709-2.147,7.886,0
							c2.178,2.147,2.178,5.627,0,7.774S518.525,593.102,516.348,590.955z"/>
					</g>
					<g>
						<path fill="#25275E" d="M576.46,657.984c-2.178-2.147-2.178-5.627,0-7.774s5.709-2.147,7.886,0
							c2.178,2.147,2.178,5.627,0,7.774C582.169,660.131,578.638,660.131,576.46,657.984z"/>
					</g>
					<g>
						<path fill="#25275E" d="M597.008,721.221c-2.178-2.147-2.178-5.627,0-7.774s5.709-2.147,7.886,0
							c2.178,2.147,2.178,5.627,0,7.774C602.717,723.367,599.186,723.367,597.008,721.221z"/>
					</g>
					<g>
						<path fill="#25275E" d="M658.17,674.625c-2.178-2.147-2.178-5.627,0-7.774s5.709-2.147,7.886,0s2.178,5.627,0,7.774
							C663.879,676.772,660.348,676.772,658.17,674.625z"/>
					</g>
					<g>
						<path fill="#25275E" d="M654.89,580.673c-2.178-2.147-2.178-5.627,0-7.774s5.709-2.147,7.886,0
							c2.178,2.147,2.178,5.627,0,7.774C660.599,582.82,657.068,582.82,654.89,580.673z"/>
					</g>
					<g>
						<path fill="#25275E" d="M730.378,617.427c-2.178-2.147-2.178-5.627,0-7.774s5.709-2.147,7.886,0
							c2.178,2.147,2.178,5.627,0,7.774C736.086,619.573,732.556,619.573,730.378,617.427z"/>
					</g>
					<g>
						<path fill="#25275E" d="M394.505,557.647c-2.178-2.147-2.178-5.627,0-7.774s5.709-2.147,7.886,0
							c2.178,2.147,2.178,5.627,0,7.774C400.213,559.794,396.682,559.794,394.505,557.647z"/>
					</g>
					<g>
						<polygon fill="#25275E" points="490.172,472.94 389.017,455.231 389.384,453.192 488.115,470.476 489.536,393.979 
							459.876,302.282 461.879,301.653 491.644,393.676 						"/>
					</g>
				</g>
				<g>
					<polygon fill="#25275E" points="409.269,756.544 407.913,754.96 466.813,705.963 457.834,626.297 519.316,585.503 
						580.474,652.677 661.015,669.45 657.575,575.235 734.784,612.61 733.858,614.47 659.802,578.622 663.212,672.026 
						579.368,654.565 579.139,654.313 518.974,588.229 460.063,627.314 469.026,706.833 468.598,707.19 					"/>
				</g>
				<g>
					<polygon fill="#25275E" points="599.176,718.401 579.277,655.073 467.853,707.578 386.04,657.353 387.151,655.595 
						467.986,705.219 580.566,652.169 601.183,717.788 					"/>
				</g>
				<g>
					<polygon fill="#25275E" points="293.308,665.874 293.118,663.81 385.65,655.519 397.708,552.731 627.846,488.899 
						487.145,392.734 575.52,394.21 626.03,341.46 535.986,307.046 536.745,305.114 629.704,340.642 576.411,396.298 
						575.948,396.29 494.034,394.921 632.711,489.703 399.635,554.349 387.541,657.429 386.691,657.506 					"/>
				</g>
				<g>
					<polygon fill="#25275E" points="630.169,491.723 626.816,341.073 628.918,341.029 632.125,485.167 740.861,326.534 
						692.234,236.917 694.088,235.94 743.312,326.659 742.957,327.176 					"/>
				</g>
				<g>
					<path fill="#25275E" d="M736.992,475.871l93.981-191.167l44.621,38.055l-37.499,64.156l-0.126,0.111L736.992,475.871z
						 M831.669,288.039l-88.154,179.316l92.927-81.763l36.465-62.386L831.669,288.039z"/>
				</g>
				<g>
					<polygon fill="#25275E" points="743.074,326.953 741.099,326.241 781.601,217.07 726.634,153.259 728.237,151.918 
						783.994,216.648 783.785,217.215 					"/>
				</g>
				<g>
					<polygon fill="#25275E" points="580.927,653.92 578.915,653.322 629.463,488.382 739.059,470.755 727.639,396.455 
						729.716,396.145 741.448,472.471 631.095,490.22 					"/>
				</g>
				<g>
					<polygon fill="#25275E" points="520.654,585.994 488.131,471.988 490.155,471.428 522.678,585.433 					"/>
				</g>
			</g>
		</g>
	</g>
	<g>
		<g>
			<defs>
				<rect id="SVGID_7_" x="-38.486" y="-8.996" width="525.499" height="517.999"/>
			</defs>
			<clipPath id="SVGID_8_">
				<use xlink:href="#SVGID_7_"  overflow="visible"/>
			</clipPath>
			<g clip-path="url(#SVGID_8_)">
				<g>
					<g>
						<polygon fill="#25275E" points="-20.726,355.406 -21.325,353.419 81.138,323.412 -27.127,248.259 72.992,223.658 72.7,98.483 
							175.029,162.602 220.509,76.032 196.47,3.21 287.34,-17.516 287.361,-15.444 199.356,5.254 222.78,76.214 222.577,76.599 
							175.84,165.564 74.812,102.26 75.099,225.277 -22.159,249.174 85.895,324.18 						"/>
					</g>
					<g>
						<path fill="#25275E" d="M285.144-12.236c-2.178-2.147-2.178-5.627,0-7.774s5.709-2.147,7.886,0
							c2.178,2.147,2.178,5.627,0,7.774S287.321-10.09,285.144-12.236z"/>
					</g>
					<g>
						<path fill="#25275E" d="M194.693,9.189c-2.178-2.147-2.178-5.627,0-7.774s5.709-2.147,7.886,0
							c2.178,2.147,2.178,5.627,0,7.774C200.402,11.336,196.871,11.336,194.693,9.189z"/>
					</g>
					<g>
						<path fill="#25275E" d="M217.267,80.223c-2.178-2.147-2.178-5.627,0-7.774s5.709-2.147,7.886,0
							c2.178,2.147,2.178,5.627,0,7.774S219.445,82.37,217.267,80.223z"/>
					</g>
					<g>
						<path fill="#25275E" d="M70.681,105.185c-2.178-2.147-2.178-5.627,0-7.774s5.709-2.147,7.886,0
							c2.178,2.147,2.178,5.627,0,7.774S72.859,107.332,70.681,105.185z"/>
					</g>
					<g>
						<path fill="#25275E" d="M69.668,228.854c-2.178-2.147-2.178-5.627,0-7.774s5.709-2.147,7.886,0s2.178,5.627,0,7.774
							S71.846,231,69.668,228.854z"/>
					</g>
					<g>
						<path fill="#25275E" d="M171.89,167.578c-2.178-2.147-2.178-5.627,0-7.774s5.709-2.147,7.886,0
							c2.178,2.147,2.178,5.627,0,7.774C177.599,169.725,174.068,169.725,171.89,167.578z"/>
					</g>
					<g>
						<path fill="#25275E" d="M255.324,169.563c-2.178-2.147-2.178-5.627,0-7.774c2.178-2.147,5.709-2.147,7.886,0
							c2.178,2.147,2.178,5.627,0,7.774C261.033,171.71,257.502,171.71,255.324,169.563z"/>
					</g>
					<g>
						<path fill="#25275E" d="M170.045,245.852c-2.178-2.147-2.178-5.627,0-7.774s5.709-2.147,7.886,0
							c2.178,2.147,2.178,5.627,0,7.774C175.754,247.998,172.223,247.998,170.045,245.852z"/>
					</g>
					<g>
						<path fill="#25275E" d="M308.853,115.277c-2.178-2.147-2.178-5.627,0-7.774s5.709-2.147,7.886,0
							c2.178,2.147,2.178,5.627,0,7.774C314.561,117.424,311.031,117.424,308.853,115.277z"/>
					</g>
					<g>
						<path fill="#25275E" d="M409.857,169.195c-2.178-2.147-2.178-5.627,0-7.774s5.709-2.147,7.886,0
							c2.178,2.147,2.178,5.627,0,7.774C415.565,171.341,412.034,171.341,409.857,169.195z"/>
					</g>
					<g>
						<path fill="#25275E" d="M420.854,316.208c-2.178-2.147-2.178-5.627,0-7.774c2.178-2.147,5.709-2.147,7.886,0
							s2.178,5.627,0,7.774C426.563,318.355,423.032,318.355,420.854,316.208z"/>
					</g>
					<g>
						<path fill="#25275E" d="M555.152,97.126c-2.178-2.147-2.178-5.627,0-7.774s5.709-2.147,7.886,0
							c2.178,2.147,2.178,5.627,0,7.774C560.861,99.273,557.33,99.273,555.152,97.126z"/>
					</g>
					<g>
						<path fill="#25275E" d="M512.802,59.945c-2.178-2.147-2.178-5.627,0-7.774c2.178-2.147,5.709-2.147,7.886,0
							c2.178,2.147,2.178,5.627,0,7.774C518.511,62.091,514.98,62.091,512.802,59.945z"/>
					</g>
					<g>
						<path fill="#25275E" d="M508.557,242.333c-2.178-2.147-2.178-5.627,0-7.774s5.709-2.147,7.886,0
							c2.178,2.147,2.178,5.627,0,7.774C514.266,244.48,510.735,244.48,508.557,242.333z"/>
					</g>
					<g>
						<path fill="#25275E" d="M341.006,19.24c-2.178-2.147-2.178-5.627,0-7.774s5.709-2.147,7.886,0s2.178,5.627,0,7.774
							S343.184,21.387,341.006,19.24z"/>
					</g>
					<g>
						<path fill="#25275E" d="M311.18,263.444c-2.178-2.147-2.178-5.627,0-7.774c2.178-2.147,5.709-2.147,7.886,0
							c2.178,2.147,2.178,5.627,0,7.774C316.889,265.59,313.358,265.59,311.18,263.444z"/>
					</g>
					<g>
						<path fill="#25275E" d="M141.779,76.111c-2.178-2.147-2.178-5.627,0-7.774s5.709-2.147,7.886,0
							c2.178,2.147,2.178,5.627,0,7.774C147.488,78.257,143.957,78.257,141.779,76.111z"/>
					</g>
					<g>
						<path fill="#25275E" d="M-28.984,252.211c-2.178-2.147-2.178-5.627,0-7.774s5.709-2.147,7.886,0
							c2.178,2.147,2.178,5.627,0,7.774S-26.806,254.358-28.984,252.211z"/>
					</g>
					<g>
						<path fill="#25275E" d="M-24.788,358.477c-2.178-2.147-2.178-5.627,0-7.774s5.709-2.147,7.886,0
							c2.178,2.147,2.178,5.627,0,7.774C-19.079,360.624-22.61,360.624-24.788,358.477z"/>
					</g>
					<g>
						<path fill="#25275E" d="M-25.306,438.415c-2.178-2.147-2.178-5.627,0-7.774s5.709-2.147,7.886,0s2.178,5.627,0,7.774
							C-19.598,440.562-23.129,440.562-25.306,438.415z"/>
					</g>
					<g>
						<path fill="#25275E" d="M149.911,526.934c-2.178-2.147-2.178-5.627,0-7.774s5.709-2.147,7.886,0
							c2.178,2.147,2.178,5.627,0,7.774S152.088,529.081,149.911,526.934z"/>
					</g>
					<g>
						<path fill="#25275E" d="M140.622,401.899c-2.178-2.147-2.178-5.627,0-7.774c2.178-2.147,5.709-2.147,7.886,0
							c2.178,2.147,2.178,5.627,0,7.774C146.33,404.046,142.799,404.046,140.622,401.899z"/>
					</g>
					<g>
						<path fill="#25275E" d="M201.193,361.211c-2.178-2.147-2.178-5.627,0-7.774c2.178-2.147,5.709-2.147,7.886,0
							s2.178,5.627,0,7.774S203.37,363.358,201.193,361.211z"/>
					</g>
					<g>
						<path fill="#25275E" d="M261.305,428.24c-2.178-2.147-2.178-5.627,0-7.774s5.709-2.147,7.886,0
							c2.178,2.147,2.178,5.627,0,7.774C267.014,430.387,263.483,430.387,261.305,428.24z"/>
					</g>
					<g>
						<path fill="#25275E" d="M339.735,350.929c-2.178-2.147-2.178-5.627,0-7.774s5.709-2.147,7.886,0s2.178,5.627,0,7.774
							C345.444,353.076,341.913,353.076,339.735,350.929z"/>
					</g>
					<g>
						<path fill="#25275E" d="M451.001,426.125c-2.178-2.147-2.178-5.627,0-7.774c2.178-2.147,5.709-2.147,7.886,0
							c2.178,2.147,2.178,5.627,0,7.774C456.71,428.272,453.179,428.272,451.001,426.125z"/>
					</g>
					<g>
						<path fill="#25275E" d="M79.35,327.903c-2.178-2.147-2.178-5.627,0-7.774s5.709-2.147,7.886,0s2.178,5.627,0,7.774
							S81.527,330.05,79.35,327.903z"/>
					</g>
					<g>
						<polygon fill="#25275E" points="175.017,243.197 73.862,225.488 74.229,223.448 172.96,240.732 174.381,164.235 
							144.721,72.538 146.724,71.909 176.489,163.932 						"/>
					</g>
				</g>
				<g>
					<polygon fill="#25275E" points="152.988,525.742 151.632,524.158 177.616,477.296 142.679,396.553 204.161,355.759 
						265.319,422.933 343.851,427.978 342.42,345.491 456.297,420.935 455.371,422.795 344.647,348.879 346.048,430.554 
						264.213,424.821 263.984,424.569 203.819,358.485 144.908,397.57 179.828,478.166 179.4,478.523 					"/>
				</g>
				<g>
					<polygon fill="#25275E" points="289.772,478.871 264.121,425.329 178.655,478.91 70.885,427.609 71.996,425.851 
						178.789,476.551 265.411,422.425 291.78,478.258 					"/>
				</g>
				<g>
					<polygon fill="#25275E" points="-21.847,436.13 -22.037,434.066 70.495,425.775 82.553,322.987 312.691,259.155 171.99,162.99 
						260.365,164.466 310.874,111.716 220.83,77.302 221.59,75.37 314.549,110.898 261.256,166.554 260.793,166.546 
						178.879,165.177 317.556,259.959 84.48,324.605 72.386,427.685 71.535,427.762 					"/>
				</g>
				<g>
					<polyline fill="#25275E" points="315.014,261.979 311.661,111.329 313.763,111.285 316.97,255.423 					"/>
				</g>
				<g>
					<path fill="#25275E" d="M421.837,246.128l93.981-191.167l44.621,38.055l-37.499,64.156l-0.126,0.111L421.837,246.128z
						 M516.514,58.295L428.36,237.611l92.927-81.763l36.465-62.385L516.514,58.295z"/>
				</g>
				<g>
					<polyline fill="#25275E" points="419.443,106.819 344.148,16.024 345.751,14.683 421.837,106.398 421.627,106.964 					"/>
				</g>
				<g>
					<polygon fill="#25275E" points="265.772,424.177 263.76,423.578 314.308,258.638 423.904,241.011 412.484,166.711 
						414.561,166.401 426.293,242.727 315.94,260.476 					"/>
				</g>
				<g>
					<polygon fill="#25275E" points="205.499,356.25 172.976,242.245 175,241.684 207.523,355.689 					"/>
				</g>
			</g>
		</g>
	</g>
	<g>
		<g>
			<defs>
				<rect id="SVGID_9_" x="-38.486" y="-8.996" width="525.499" height="517.999"/>
			</defs>
			<clipPath id="SVGID_10_">
				<use xlink:href="#SVGID_9_"  overflow="visible"/>
			</clipPath>
			<g clip-path="url(#SVGID_10_)">
				<g>
					<g>
						<polygon fill="#25275E" points="-68.353,173.848 -68.373,171.776 21.358,170.934 -2.067,99.974 44.873,10.623 145.902,73.928 
							145.615,-49.088 242.872,-72.986 134.819,-147.992 241.44,-179.217 242.038,-177.231 139.576,-147.224 247.841,-72.071 
							147.721,-47.471 148.013,77.706 45.684,13.586 0.205,100.157 24.243,172.979 						"/>
					</g>
					<g>
						<path fill="#25275E" d="M-66.156,168.568c2.178,2.147,2.178,5.627,0,7.774s-5.709,2.147-7.886,0
							c-2.178-2.147-2.178-5.627,0-7.774C-71.865,166.422-68.334,166.422-66.156,168.568z"/>
					</g>
					<g>
						<path fill="#25275E" d="M26.021,166.999c2.178,2.147,2.178,5.627,0,7.774s-5.709,2.147-7.886,0
							c-2.178-2.147-2.178-5.627,0-7.774C20.312,164.853,23.843,164.853,26.021,166.999z"/>
					</g>
					<g>
						<path fill="#25275E" d="M3.447,95.965c2.178,2.147,2.178,5.627,0,7.774s-5.709,2.147-7.886,0
							c-2.178-2.147-2.178-5.627,0-7.774C-2.262,93.818,1.269,93.818,3.447,95.965z"/>
					</g>
					<g>
						<path fill="#25275E" d="M150.032,71.003c2.178,2.147,2.178,5.627,0,7.774s-5.709,2.147-7.886,0
							c-2.178-2.147-2.178-5.627,0-7.774S147.855,68.856,150.032,71.003z"/>
					</g>
					<g>
						<path fill="#25275E" d="M151.045-52.666c2.178,2.147,2.178,5.627,0,7.774c-2.178,2.147-5.709,2.147-7.886,0
							c-2.178-2.147-2.178-5.627,0-7.774C145.337-54.812,148.868-54.812,151.045-52.666z"/>
					</g>
					<g>
						<path fill="#25275E" d="M48.824,8.61c2.178,2.147,2.178,5.627,0,7.774s-5.709,2.147-7.886,0c-2.178-2.147-2.178-5.627,0-7.774
							C43.115,6.463,46.646,6.463,48.824,8.61z"/>
					</g>
					<g>
						<path fill="#25275E" d="M-34.611,6.625c2.178,2.147,2.178,5.627,0,7.774s-5.709,2.147-7.886,0
							c-2.178-2.147-2.178-5.627,0-7.774S-36.788,4.478-34.611,6.625z"/>
					</g>
					<g>
						<path fill="#25275E" d="M50.669-69.663c2.178,2.147,2.178,5.627,0,7.774c-2.178,2.147-5.709,2.147-7.886,0
							c-2.178-2.147-2.178-5.627,0-7.774S48.491-71.81,50.669-69.663z"/>
					</g>
					<g>
						<path fill="#25275E" d="M-88.139,60.911c2.178,2.147,2.178,5.627,0,7.774s-5.709,2.147-7.886,0s-2.178-5.627,0-7.774
							C-93.848,58.764-90.317,58.764-88.139,60.911z"/>
					</g>
					<g>
						<path fill="#25275E" d="M-201.732,75.603c2.178,2.147,2.178,5.627,0,7.774s-5.709,2.147-7.886,0
							c-2.178-2.147-2.178-5.627,0-7.774C-207.441,73.456-203.91,73.456-201.732,75.603z"/>
					</g>
					<g>
						<path fill="#25275E" d="M-189.143,6.993c2.178,2.147,2.178,5.627,0,7.774s-5.709,2.147-7.886,0
							c-2.178-2.147-2.178-5.627,0-7.774C-194.852,4.847-191.321,4.847-189.143,6.993z"/>
					</g>
					<g>
						<path fill="#25275E" d="M-200.141-140.021c2.178,2.147,2.178,5.627,0,7.774s-5.709,2.147-7.886,0
							c-2.178-2.147-2.178-5.627,0-7.774C-205.849-142.167-202.318-142.167-200.141-140.021z"/>
					</g>
					<g>
						<path fill="#25275E" d="M-334.439,79.062c2.178,2.147,2.178,5.627,0,7.774s-5.709,2.147-7.886,0
							c-2.178-2.147-2.178-5.627,0-7.774C-340.147,76.915-336.616,76.915-334.439,79.062z"/>
					</g>
					<g>
						<path fill="#25275E" d="M-292.089,116.243c2.178,2.147,2.178,5.627,0,7.774s-5.709,2.147-7.886,0s-2.178-5.627,0-7.774
							S-294.266,114.097-292.089,116.243z"/>
					</g>
					<g>
						<path fill="#25275E" d="M-287.844-66.145c2.178,2.147,2.178,5.627,0,7.774c-2.178,2.147-5.709,2.147-7.886,0
							c-2.178-2.147-2.178-5.627,0-7.774C-293.552-68.292-290.022-68.292-287.844-66.145z"/>
					</g>
					<g>
						<path fill="#25275E" d="M-152.583,166.371c2.178,2.147,2.178,5.627,0,7.774s-5.709,2.147-7.886,0
							c-2.178-2.147-2.178-5.627,0-7.774C-158.292,164.225-154.761,164.225-152.583,166.371z"/>
					</g>
					<g>
						<path fill="#25275E" d="M-187.624,249.457c2.178,2.147,2.178,5.627,0,7.774c-2.178,2.147-5.709,2.147-7.886,0
							c-2.178-2.147-2.178-5.627,0-7.774C-193.333,247.31-189.802,247.31-187.624,249.457z"/>
					</g>
					<g>
						<path fill="#25275E" d="M-90.467-87.256c2.178,2.147,2.178,5.627,0,7.774s-5.709,2.147-7.886,0
							c-2.178-2.147-2.178-5.627,0-7.774C-96.175-89.402-92.644-89.402-90.467-87.256z"/>
					</g>
					<g>
						<path fill="#25275E" d="M78.934,100.078c2.178,2.147,2.178,5.627,0,7.774s-5.709,2.147-7.886,0s-2.178-5.627,0-7.774
							S76.756,97.931,78.934,100.078z"/>
					</g>
					<g>
						<path fill="#25275E" d="M249.698-76.023c2.178,2.147,2.178,5.627,0,7.774s-5.709,2.147-7.886,0
							c-2.178-2.147-2.178-5.627,0-7.774C243.989-78.169,247.52-78.169,249.698-76.023z"/>
					</g>
					<g>
						<path fill="#25275E" d="M245.501-182.289c2.178,2.147,2.178,5.627,0,7.774s-5.709,2.147-7.886,0
							c-2.178-2.147-2.178-5.627,0-7.774S243.324-184.436,245.501-182.289z"/>
					</g>
					<g>
						<path fill="#25275E" d="M246.02-262.227c2.178,2.147,2.178,5.627,0,7.774c-2.178,2.147-5.709,2.147-7.886,0
							c-2.178-2.147-2.178-5.627,0-7.774C240.311-264.373,243.842-264.373,246.02-262.227z"/>
					</g>
					<g>
						<path fill="#25275E" d="M129.677-351.804c2.178,2.147,2.178,5.627,0,7.774c-2.178,2.147-5.709,2.147-7.886,0
							c-2.178-2.147-2.178-5.627,0-7.774S127.5-353.951,129.677-351.804z"/>
					</g>
					<g>
						<path fill="#25275E" d="M80.092-225.711c2.178,2.147,2.178,5.627,0,7.774s-5.709,2.147-7.886,0
							c-2.178-2.147-2.178-5.627,0-7.774C74.383-227.858,77.914-227.858,80.092-225.711z"/>
					</g>
					<g>
						<path fill="#25275E" d="M19.521-185.023c2.178,2.147,2.178,5.627,0,7.774s-5.709,2.147-7.886,0
							c-2.178-2.147-2.178-5.627,0-7.774C13.812-187.17,17.343-187.17,19.521-185.023z"/>
					</g>
					<g>
						<path fill="#25275E" d="M-40.592-252.052c2.178,2.147,2.178,5.627,0,7.774s-5.709,2.147-7.886,0s-2.178-5.627,0-7.774
							C-46.3-254.198-42.77-254.198-40.592-252.052z"/>
					</g>
					<g>
						<path fill="#25275E" d="M-61.14-315.289c2.178,2.147,2.178,5.627,0,7.774s-5.709,2.147-7.886,0s-2.178-5.627,0-7.774
							S-63.318-317.435-61.14-315.289z"/>
					</g>
					<g>
						<path fill="#25275E" d="M-122.302-268.693c2.178,2.147,2.178,5.627,0,7.774s-5.709,2.147-7.886,0
							c-2.178-2.147-2.178-5.627,0-7.774C-128.01-270.84-124.479-270.84-122.302-268.693z"/>
					</g>
					<g>
						<path fill="#25275E" d="M-119.022-174.741c2.178,2.147,2.178,5.627,0,7.774s-5.709,2.147-7.886,0
							c-2.178-2.147-2.178-5.627,0-7.774S-121.199-176.888-119.022-174.741z"/>
					</g>
					<g>
						<path fill="#25275E" d="M-194.509-211.495c2.178,2.147,2.178,5.627,0,7.774s-5.709,2.147-7.886,0
							c-2.178-2.147-2.178-5.627,0-7.774C-200.218-213.641-196.687-213.641-194.509-211.495z"/>
					</g>
					<g>
						<path fill="#25275E" d="M141.364-151.715c2.178,2.147,2.178,5.627,0,7.774s-5.709,2.147-7.886,0
							c-2.178-2.147-2.178-5.627,0-7.774C135.655-153.862,139.186-153.862,141.364-151.715z"/>
					</g>
					<g>
						<polygon fill="#25275E" points="73.99,104.279 44.224,12.256 45.697,-67.009 146.852,-49.299 146.484,-47.26 47.754,-64.544 
							46.333,11.953 75.992,103.65 						"/>
					</g>
				</g>
				<g>
					<polygon fill="#25275E" points="-121.706,-169.304 -198.916,-206.678 -197.989,-208.537 -123.934,-172.69 -127.344,-266.094 
						-43.499,-248.633 -43.271,-248.381 16.895,-182.297 75.806,-221.382 66.842,-300.901 126.6,-350.611 127.956,-349.027 
						69.055,-300.031 78.035,-220.364 16.552,-179.571 -44.606,-246.745 -125.146,-263.518 					"/>
				</g>
				<g>
					<polygon fill="#25275E" points="-44.697,-246.237 -65.315,-311.856 -63.307,-312.469 -43.409,-249.141 68.016,-301.646 
						149.829,-251.422 148.717,-249.663 67.882,-299.286 					"/>
				</g>
				<g>
					<polygon fill="#25275E" points="-0.877,100.817 -93.835,65.29 -40.544,9.635 41.834,11.011 -96.842,-83.77 136.234,-148.417 
						148.327,-251.498 242.561,-259.942 242.751,-257.878 150.219,-249.587 138.16,-146.799 -91.978,-82.967 48.723,13.198 
						-39.652,11.722 -90.161,64.472 -0.117,98.886 					"/>
				</g>
				<g>
					<polygon fill="#25275E" points="-158.219,169.992 -207.444,79.273 -207.089,78.755 -94.3,-85.79 -90.947,64.858 
						-93.049,64.904 -96.256,-79.235 -204.993,79.398 -156.366,169.015 					"/>
				</g>
				<g>
					<path fill="#25275E" d="M-295.104,121.226l-44.621-38.053l37.499-64.156l0.126-0.111l100.976-88.845L-295.104,121.226z
						 M-337.038,82.725l41.236,35.168l88.155-179.316l-92.928,81.763L-337.038,82.725z"/>
				</g>
				<g>
					<polygon fill="#25275E" points="-192.368,254.014 -248.126,189.283 -207.205,78.98 -205.231,79.691 -245.731,188.861 
						-190.766,252.673 					"/>
				</g>
				<g>
					<polygon fill="#25275E" points="-193.848,9.788 -205.58,-66.539 -95.226,-84.287 -45.059,-247.989 -43.047,-247.39 
						-93.593,-82.45 -94.24,-82.346 -203.19,-64.824 -191.77,9.477 					"/>
				</g>
				<g>
					<polygon fill="#25275E" points="45.713,-65.496 13.191,-179.501 15.215,-180.062 47.737,-66.057 					"/>
				</g>
			</g>
		</g>
	</g>
</g>
<rect x="481.861" y="142.207" display="none" fill="#151327" width="370.196" height="246.797"/>
<g display="none">
	<g display="inline">
		
			<radialGradient id="SVGID_11_" cx="525.5261" cy="544.1597" r="54.3241" gradientTransform="matrix(0.9942 0.1079 -0.1079 0.9942 204.1064 -337.4576)" gradientUnits="userSpaceOnUse">
			<stop  offset="0" style="stop-color:#7ED1E3"/>
			<stop  offset="1" style="stop-color:#2EA8E0;stop-opacity:0"/>
		</radialGradient>
		<circle opacity="0.3" fill="url(#SVGID_11_)" enable-background="new    " cx="665.578" cy="259.845" r="54.107"/>
	</g>
	
		<radialGradient id="SVGID_12_" cx="381.5643" cy="535.2878" r="43.7265" gradientTransform="matrix(0.9942 0.1079 -0.1079 0.9942 204.1064 -337.4576)" gradientUnits="userSpaceOnUse">
		<stop  offset="0" style="stop-color:#7ED1E3"/>
		<stop  offset="0.8385" style="stop-color:#2EA8E0;stop-opacity:0"/>
	</radialGradient>
	
		<circle display="inline" opacity="0.3" fill="url(#SVGID_12_)" enable-background="new    " cx="526.523" cy="235.571" r="43.535"/>
	
		<radialGradient id="SVGID_13_" cx="442.074" cy="620.7117" r="43.726" gradientTransform="matrix(0.9942 0.1079 -0.1079 0.9942 204.1064 -337.4576)" gradientUnits="userSpaceOnUse">
		<stop  offset="0" style="stop-color:#7ED1E3"/>
		<stop  offset="0.8385" style="stop-color:#2EA8E0;stop-opacity:0"/>
	</radialGradient>
	
		<circle display="inline" opacity="0.3" fill="url(#SVGID_13_)" enable-background="new    " cx="577.464" cy="327.028" r="43.535"/>
	
		<radialGradient id="SVGID_14_" cx="617.0649" cy="512.7098" r="43.7263" gradientTransform="matrix(0.9942 0.1079 -0.1079 0.9942 204.1064 -337.4576)" gradientUnits="userSpaceOnUse">
		<stop  offset="0" style="stop-color:#7ED1E3"/>
		<stop  offset="0.8385" style="stop-color:#2EA8E0;stop-opacity:0"/>
	</radialGradient>
	
		<circle display="inline" opacity="0.3" fill="url(#SVGID_14_)" enable-background="new    " cx="763.094" cy="238.534" r="43.535"/>
</g>
<g display="none">
	
		<linearGradient id="SVGID_15_" gradientUnits="userSpaceOnUse" x1="551.965" y1="490.082" x2="636.927" y2="490.082" gradientTransform="matrix(1 0 0 1 48 -201)">
		<stop  offset="0" style="stop-color:#7ED1E3"/>
		<stop  offset="1" style="stop-color:#2EA8E0"/>
	</linearGradient>
	<polygon display="inline" fill="url(#SVGID_15_)" points="599.965,289.081 642.446,313.608 684.927,289.081 642.446,264.556 	"/>
	
		<linearGradient id="SVGID_16_" gradientUnits="userSpaceOnUse" x1="552.366" y1="473.077" x2="637.328" y2="473.077" gradientTransform="matrix(1 0 0 1 48 -201)">
		<stop  offset="0" style="stop-color:#7ED1E3"/>
		<stop  offset="1" style="stop-color:#2EA8E0"/>
	</linearGradient>
	<polygon display="inline" fill="url(#SVGID_16_)" points="600.366,272.076 642.847,296.603 685.328,272.076 642.847,247.551 	"/>
	
		<linearGradient id="SVGID_17_" gradientUnits="userSpaceOnUse" x1="611.465" y1="494.705" x2="676.744" y2="494.705" gradientTransform="matrix(1 0 0 1 48 -201)">
		<stop  offset="0" style="stop-color:#7ED1E3"/>
		<stop  offset="1" style="stop-color:#2EA8E0"/>
	</linearGradient>
	<polygon display="inline" fill="url(#SVGID_17_)" points="659.465,293.704 692.105,312.549 724.744,293.704 692.105,274.861 	"/>
	
		<linearGradient id="SVGID_18_" gradientUnits="userSpaceOnUse" x1="603.66" y1="506.641" x2="646.394" y2="506.641" gradientTransform="matrix(1 0 0 1 48 -201)">
		<stop  offset="0" style="stop-color:#7ED1E3"/>
		<stop  offset="1" style="stop-color:#2EA8E0"/>
	</linearGradient>
	<polygon display="inline" fill="url(#SVGID_18_)" points="651.66,305.64 673.027,317.977 694.394,305.64 673.027,293.305 	"/>
	
		<linearGradient id="SVGID_19_" gradientUnits="userSpaceOnUse" x1="637.225" y1="522.479" x2="663.283" y2="522.479" gradientTransform="matrix(1 0 0 1 48 -201)">
		<stop  offset="0" style="stop-color:#7ED1E3"/>
		<stop  offset="1" style="stop-color:#2EA8E0"/>
	</linearGradient>
	<polygon display="inline" fill="url(#SVGID_19_)" points="685.225,321.479 698.255,329.001 711.283,321.479 698.255,313.957 	"/>
	
		<linearGradient id="SVGID_20_" gradientUnits="userSpaceOnUse" x1="656.44" y1="476.8375" x2="673.401" y2="476.8375" gradientTransform="matrix(1 0 0 1 48 -201)">
		<stop  offset="0" style="stop-color:#7ED1E3"/>
		<stop  offset="1" style="stop-color:#2EA8E0"/>
	</linearGradient>
	<polygon display="inline" fill="url(#SVGID_20_)" points="704.44,275.837 712.921,280.734 721.401,275.837 712.921,270.941 	"/>
	
		<linearGradient id="SVGID_21_" gradientUnits="userSpaceOnUse" x1="541.125" y1="487.8865" x2="560.058" y2="487.8865" gradientTransform="matrix(1 0 0 1 48 -201)">
		<stop  offset="0" style="stop-color:#7ED1E3"/>
		<stop  offset="1" style="stop-color:#2EA8E0"/>
	</linearGradient>
	<polygon display="inline" opacity="0.5" fill="url(#SVGID_21_)" enable-background="new    " points="589.125,286.886 
		598.592,292.352 608.058,286.886 598.592,281.421 	"/>
	
		<linearGradient id="SVGID_22_" gradientUnits="userSpaceOnUse" x1="497.189" y1="445.0275" x2="582.151" y2="445.0275" gradientTransform="matrix(1 0 0 1 48 -201)">
		<stop  offset="0" style="stop-color:#7ED1E3"/>
		<stop  offset="1" style="stop-color:#2EA8E0"/>
	</linearGradient>
	<polygon display="inline" fill="url(#SVGID_22_)" points="545.189,244.026 587.67,268.553 630.151,244.026 587.67,219.502 	"/>
	
		<linearGradient id="SVGID_23_" gradientUnits="userSpaceOnUse" x1="451.053" y1="467.9185" x2="505.991" y2="467.9185" gradientTransform="matrix(1 0 0 1 48 -201)">
		<stop  offset="0" style="stop-color:#7ED1E3"/>
		<stop  offset="1" style="stop-color:#2EA8E0"/>
	</linearGradient>
	<polygon display="inline" fill="url(#SVGID_23_)" points="499.053,266.918 526.523,282.777 553.991,266.918 526.523,251.06 	"/>
	
		<linearGradient id="SVGID_24_" gradientUnits="userSpaceOnUse" x1="470.265" y1="529.408" x2="525.203" y2="529.408" gradientTransform="matrix(1 0 0 1 48 -201)">
		<stop  offset="0" style="stop-color:#7ED1E3"/>
		<stop  offset="1" style="stop-color:#2EA8E0"/>
	</linearGradient>
	<polygon display="inline" fill="url(#SVGID_24_)" points="518.265,328.407 545.734,344.267 573.203,328.407 545.734,312.549 	"/>
	
		<linearGradient id="SVGID_25_" gradientUnits="userSpaceOnUse" x1="570" y1="561.7945" x2="613.65" y2="561.7945" gradientTransform="matrix(1 0 0 1 48 -201)">
		<stop  offset="0" style="stop-color:#7ED1E3"/>
		<stop  offset="1" style="stop-color:#2EA8E0"/>
	</linearGradient>
	<polygon display="inline" fill="url(#SVGID_25_)" points="618,360.794 639.825,373.395 661.65,360.794 639.825,348.194 	"/>
	
		<linearGradient id="SVGID_26_" gradientUnits="userSpaceOnUse" x1="673.179" y1="544.5515" x2="716.829" y2="544.5515" gradientTransform="matrix(1 0 0 1 48 -201)">
		<stop  offset="0" style="stop-color:#7ED1E3"/>
		<stop  offset="1" style="stop-color:#2EA8E0"/>
	</linearGradient>
	<polygon display="inline" fill="url(#SVGID_26_)" points="721.179,343.551 743.004,356.152 764.829,343.551 743.004,330.951 	"/>
	
		<linearGradient id="SVGID_27_" gradientUnits="userSpaceOnUse" x1="730.321" y1="491.7875" x2="773.971" y2="491.7875" gradientTransform="matrix(1 0 0 1 48 -201)">
		<stop  offset="0" style="stop-color:#7ED1E3"/>
		<stop  offset="1" style="stop-color:#2EA8E0"/>
	</linearGradient>
	<polygon display="inline" fill="url(#SVGID_27_)" points="778.321,290.787 800.146,303.388 821.971,290.787 800.146,278.187 	"/>
	
		<linearGradient id="SVGID_28_" gradientUnits="userSpaceOnUse" x1="662.416" y1="454.263" x2="727.592" y2="454.263" gradientTransform="matrix(1 0 0 1 48 -201)">
		<stop  offset="0" style="stop-color:#7ED1E3"/>
		<stop  offset="1" style="stop-color:#2EA8E0"/>
	</linearGradient>
	<polygon display="inline" fill="url(#SVGID_28_)" points="710.416,253.262 743.004,272.077 775.592,253.262 743.004,234.449 	"/>
	
		<linearGradient id="SVGID_29_" gradientUnits="userSpaceOnUse" x1="656.376" y1="394.414" x2="704.07" y2="394.414" gradientTransform="matrix(1 0 0 1 48 -201)">
		<stop  offset="0" style="stop-color:#7ED1E3"/>
		<stop  offset="1" style="stop-color:#2EA8E0"/>
	</linearGradient>
	<polygon display="inline" fill="url(#SVGID_29_)" points="704.376,193.413 728.223,207.182 752.07,193.413 728.223,179.646 	"/>
	
		<linearGradient id="SVGID_30_" gradientUnits="userSpaceOnUse" x1="632.377" y1="392.942" x2="672.225" y2="392.942" gradientTransform="matrix(1 0 0 1 48 -201)">
		<stop  offset="0" style="stop-color:#7ED1E3"/>
		<stop  offset="1" style="stop-color:#2EA8E0"/>
	</linearGradient>
	<polygon display="inline" fill="url(#SVGID_30_)" points="680.377,191.941 700.301,203.445 720.225,191.941 700.301,180.439 	"/>
	
		<linearGradient id="SVGID_31_" gradientUnits="userSpaceOnUse" x1="577.996" y1="420.501" x2="611.674" y2="420.501" gradientTransform="matrix(1 0 0 1 48 -201)">
		<stop  offset="0" style="stop-color:#7ED1E3"/>
		<stop  offset="1" style="stop-color:#2EA8E0"/>
	</linearGradient>
	<polygon display="inline" opacity="0.3" fill="url(#SVGID_31_)" enable-background="new    " points="625.996,219.501 
		642.835,229.223 659.674,219.501 642.835,209.779 	"/>
	
		<linearGradient id="SVGID_32_" gradientUnits="userSpaceOnUse" x1="584.587" y1="394.7435" x2="626.117" y2="394.7435" gradientTransform="matrix(1 0 0 1 48 -201)">
		<stop  offset="0" style="stop-color:#7ED1E3"/>
		<stop  offset="1" style="stop-color:#2EA8E0"/>
	</linearGradient>
	<polygon display="inline" opacity="0.3" fill="url(#SVGID_32_)" enable-background="new    " points="632.587,193.743 
		653.352,205.732 674.117,193.743 653.352,181.755 	"/>
	
		<linearGradient id="SVGID_33_" gradientUnits="userSpaceOnUse" x1="504.951" y1="476.838" x2="534.941" y2="476.838" gradientTransform="matrix(1 0 0 1 48 -201)">
		<stop  offset="0" style="stop-color:#7ED1E3"/>
		<stop  offset="1" style="stop-color:#2EA8E0"/>
	</linearGradient>
	<polygon display="inline" opacity="0.3" fill="url(#SVGID_33_)" enable-background="new    " points="552.951,275.837 
		567.946,284.495 582.941,275.837 567.946,267.181 	"/>
	
		<linearGradient id="SVGID_34_" gradientUnits="userSpaceOnUse" x1="720.73" y1="534.867" x2="750.72" y2="534.867" gradientTransform="matrix(1 0 0 1 48 -201)">
		<stop  offset="0" style="stop-color:#7ED1E3"/>
		<stop  offset="1" style="stop-color:#2EA8E0"/>
	</linearGradient>
	<polygon display="inline" opacity="0.3" fill="url(#SVGID_34_)" enable-background="new    " points="768.73,333.866 
		783.725,342.524 798.72,333.866 783.725,325.21 	"/>
	
		<linearGradient id="SVGID_35_" gradientUnits="userSpaceOnUse" x1="555.005" y1="528.028" x2="584.995" y2="528.028" gradientTransform="matrix(1 0 0 1 48 -201)">
		<stop  offset="0" style="stop-color:#7ED1E3"/>
		<stop  offset="1" style="stop-color:#2EA8E0"/>
	</linearGradient>
	<polygon display="inline" opacity="0.3" fill="url(#SVGID_35_)" enable-background="new    " points="603.005,327.027 618,335.685 
		632.995,327.027 618,318.371 	"/>
	
		<linearGradient id="SVGID_36_" gradientUnits="userSpaceOnUse" x1="740.771" y1="422.4675" x2="770.761" y2="422.4675" gradientTransform="matrix(1 0 0 1 48 -201)">
		<stop  offset="0" style="stop-color:#7ED1E3"/>
		<stop  offset="1" style="stop-color:#2EA8E0"/>
	</linearGradient>
	<polygon display="inline" opacity="0.3" fill="url(#SVGID_36_)" enable-background="new    " points="788.771,221.467 
		803.766,230.125 818.761,221.467 803.766,212.81 	"/>
</g>
<g display="none">
	<g display="inline">
		<path fill="#FFFFFF" d="M704.376,211.394l-4.623,5.394l4.623,7.351l4.622-5.395L704.376,211.394z M701.519,217.162l5.713,1.209
			l-2.857,3.334L701.519,217.162z"/>
		<g>
			<path fill="#FFFFFF" d="M704.376,215.87c-3.667-0.776-7.378-0.774-7.378,0.73c0,1.282,2.696,2.611,5.761,3.457
				c-0.136-0.228-0.159-0.513-0.089-0.775c-3.196-0.899-4.921-2.075-4.921-2.524c0-0.523,2.339-1.046,6.628-0.139
				s6.629,2.421,6.629,2.944c0,0.419-1.503,0.836-4.301,0.521c0.037,0.251-0.008,0.517-0.135,0.735
				c2.819,0.345,5.186,0.104,5.186-1.097C711.755,218.218,708.042,216.646,704.376,215.87z"/>
		</g>
	</g>
	<g display="inline">
		<path fill="#FFFFFF" d="M533.925,296.603l-3.985,4.65l3.985,6.337l3.985-4.651L533.925,296.603z M531.463,301.574l4.925,1.042
			l-2.463,2.875L531.463,301.574z"/>
		<g>
			<path fill="#FFFFFF" d="M533.925,300.461c-3.161-0.669-6.361-0.667-6.361,0.628c0,1.105,2.324,2.251,4.966,2.981
				c-0.117-0.196-0.137-0.442-0.077-0.668c-2.755-0.774-4.242-1.789-4.242-2.175c0-0.451,2.017-0.902,5.714-0.119
				c3.697,0.782,5.714,2.087,5.714,2.537c0,0.361-1.296,0.721-3.708,0.449c0.032,0.217-0.007,0.446-0.116,0.634
				c2.43,0.298,4.471,0.089,4.471-0.946C540.286,302.484,537.085,301.129,533.925,300.461z"/>
		</g>
	</g>
	<g display="inline">
		<path fill="#FFFFFF" d="M669.259,169.039c1.781,0.445,3.269,2.418,3.646,4.66c0.111,0.01,0.224,0.031,0.338,0.059
			c1.615,0.403,2.919,2.414,2.915,4.494c-0.004,2.081-1.314,3.44-2.929,3.037c-0.462-0.116-0.897-0.366-1.284-0.707
			c-0.39,0.147-0.823,0.18-1.287,0.064c-0.771-0.193-1.471-0.755-1.992-1.517c-0.523,0.5-1.223,0.713-1.996,0.521
			c-1.614-0.404-2.921-2.418-2.917-4.497c0.003-1.567,0.747-2.721,1.804-3.027C665.863,169.925,667.406,168.577,669.259,169.039z"/>
	</g>
	<g display="inline">
		<path fill="#FFFFFF" d="M557.113,233.101c1.406,0.351,2.581,1.909,2.878,3.679c0.088,0.008,0.177,0.024,0.267,0.046
			c1.275,0.318,2.304,1.906,2.301,3.547c-0.003,1.642-1.038,2.715-2.313,2.397c-0.365-0.092-0.708-0.289-1.013-0.558
			c-0.308,0.116-0.65,0.142-1.016,0.051c-0.609-0.152-1.161-0.596-1.573-1.197c-0.413,0.395-0.966,0.563-1.576,0.411
			c-1.274-0.319-2.306-1.909-2.302-3.55c0.003-1.237,0.589-2.148,1.424-2.389C554.432,233.801,555.651,232.737,557.113,233.101z"/>
	</g>
	<g display="inline">
		<path fill="#FFFFFF" d="M774.79,295.314c2.051,0.512,3.765,2.785,4.199,5.367c0.128,0.011,0.258,0.035,0.389,0.068
			c1.86,0.464,3.362,2.78,3.358,5.175c-0.005,2.396-1.514,3.962-3.374,3.498c-0.532-0.134-1.033-0.421-1.478-0.814
			c-0.449,0.168-0.948,0.207-1.482,0.074c-0.888-0.222-1.694-0.87-2.295-1.747c-0.603,0.576-1.409,0.821-2.299,0.6
			c-1.859-0.465-3.364-2.786-3.359-5.179c0.004-1.805,0.86-3.134,2.078-3.486C770.879,296.335,772.656,294.782,774.79,295.314z"/>
	</g>
</g>
<g opacity="0.3" enable-background="new    ">
	<g>
		<g>
			<defs>
				<rect id="SVGID_37_" x="503.514" y="-14.996" width="525.499" height="526.999"/>
			</defs>
			<clipPath id="SVGID_38_">
				<use xlink:href="#SVGID_37_"  overflow="visible"/>
			</clipPath>
			<g clip-path="url(#SVGID_38_)">
				<g>
					<g>
						<path fill="#25275E" d="M1410.739-11.918c-0.659,0-1.295-0.277-1.745-0.76l-8.2-8.808c-1.977-2.122-3.065-4.89-3.065-7.793
							v-12.74c0-1.083,0.879-1.964,1.958-1.964h22.102c1.08,0,1.958,0.881,1.958,1.964v12.74c0,2.903-1.088,5.671-3.065,7.793
							l-8.2,8.808C1412.034-12.195,1411.398-11.918,1410.739-11.918z M1399.688-42.928c-0.5,0-0.907,0.408-0.907,0.91v12.74
							c0,2.635,0.987,5.147,2.781,7.073l8.2,8.808c0.511,0.549,1.443,0.549,1.954,0l8.2-8.808c1.794-1.926,2.781-4.438,2.781-7.073
							v-12.74c0-0.502-0.407-0.91-0.907-0.91H1399.688z"/>
					</g>
					<g>
						<path fill="#25275E" d="M1409.331-24.597c-0.592,0-1.185-0.222-1.644-0.667l-5.632-5.466c-0.939-0.91-0.964-2.412-0.056-3.353
							c0.908-0.943,2.406-0.966,3.344-0.055l3.943,3.826l7.076-7.244c0.915-0.936,2.412-0.95,3.344-0.034
							c0.933,0.917,0.948,2.418,0.035,3.354l-8.721,8.927C1410.557-24.834,1409.944-24.597,1409.331-24.597z"/>
					</g>
				</g>
				<g>
					<g>
						<polygon fill="#25275E" points="975.071,8.223 877.279,-44.922 878.281,-46.776 972.258,4.296 949.614,-126.542 
							1038.056,-73.242 1127.644,-163.499 1154.005,-44.808 1248.266,-74.837 1283.506,-144.27 1349.605,-79.233 1348.133,-77.728 
							1284.079,-140.753 1249.74,-73.094 1152.453,-42.102 1152.203,-43.226 1126.427,-159.284 1038.384,-70.584 952.471,-122.361 
													"/>
					</g>
					<g>
						<ellipse fill="#25275E" cx="1349.841" cy="-76.992" rx="5.577" ry="5.592"/>
					</g>
					<g>
						<ellipse fill="#25275E" cx="1283.536" cy="-141.228" rx="5.576" ry="5.592"/>
					</g>
					<g>
						<ellipse fill="#25275E" cx="1248.542" cy="-74.119" rx="5.577" ry="5.592"/>
					</g>
					<g>
						<ellipse fill="#25275E" cx="1126.984" cy="-160.109" rx="5.577" ry="5.592"/>
					</g>
					<g>
						<ellipse fill="#25275E" cx="1037.555" cy="-71.862" rx="5.577" ry="5.593"/>
					</g>
					<g>
						<ellipse fill="#25275E" cx="1153.792" cy="-43.455" rx="5.577" ry="5.592"/>
					</g>
					<g>
						<ellipse fill="#25275E" cx="1211.365" cy="17.139" rx="5.577" ry="5.593"/>
					</g>
					<g>
						<ellipse fill="#25275E" cx="1096.339" cy="11.546" rx="5.577" ry="5.592"/>
					</g>
					<g>
						<ellipse fill="#25275E" cx="1288.158" cy="16.044" rx="5.577" ry="5.593"/>
					</g>
					<g>
						<ellipse fill="#25275E" cx="1379.019" cy="86.027" rx="5.577" ry="5.592"/>
					</g>
					<g>
						<ellipse fill="#25275E" cx="1320.901" cy="126.456" rx="5.577" ry="5.593"/>
					</g>
					<g>
						<ellipse fill="#25275E" cx="1223.218" cy="240.016" rx="5.577" ry="5.593"/>
					</g>
					<g>
						<ellipse fill="#25275E" cx="1475.338" cy="177.644" rx="5.577" ry="5.592"/>
					</g>
					<g>
						<ellipse fill="#25275E" cx="1472.064" cy="120.864" rx="5.576" ry="5.592"/>
					</g>
					<g>
						<ellipse fill="#25275E" cx="1338.227" cy="249.063" rx="5.577" ry="5.592"/>
					</g>
					<g>
						<ellipse fill="#25275E" cx="1409.378" cy="-14.124" rx="5.577" ry="5.592"/>
					</g>
					<g>
						<ellipse fill="#25275E" cx="1493.756" cy="-49.047" rx="5.577" ry="5.593"/>
					</g>
					<g>
						<ellipse fill="#25275E" cx="1183.517" cy="124.285" rx="5.577" ry="5.593"/>
					</g>
					<g>
						<ellipse fill="#25275E" cx="1198.115" cy="-130.608" rx="5.576" ry="5.592"/>
					</g>
					<g>
						<ellipse fill="#25275E" cx="951.042" cy="-125.015" rx="5.577" ry="5.593"/>
					</g>
					<g>
						<ellipse fill="#25275E" cx="877.78" cy="-45.592" rx="5.577" ry="5.593"/>
					</g>
					<g>
						<ellipse fill="#25275E" cx="820.07" cy="11.546" rx="5.577" ry="5.592"/>
					</g>
					<g>
						<ellipse fill="#25275E" cx="838.079" cy="158.489" rx="5.577" ry="5.592"/>
					</g>
					<g>
						<ellipse fill="#25275E" cx="963.594" cy="102.941" rx="5.577" ry="5.593"/>
					</g>
					<g>
						<ellipse fill="#25275E" cx="1035.611" cy="116.623" rx="5.577" ry="5.593"/>
					</g>
					<g>
						<ellipse fill="#25275E" cx="1030.034" cy="207.47" rx="5.576" ry="5.592"/>
					</g>
					<g>
						<ellipse fill="#25275E" cx="999.201" cy="267.533" rx="5.577" ry="5.592"/>
					</g>
					<g>
						<ellipse fill="#25275E" cx="1075.875" cy="277.384" rx="5.576" ry="5.593"/>
					</g>
					<g>
						<ellipse fill="#25275E" cx="1140.951" cy="207.47" rx="5.577" ry="5.592"/>
					</g>
					<g>
						<ellipse fill="#25275E" cx="1167.964" cy="287.44" rx="5.577" ry="5.592"/>
					</g>
					<g>
						<ellipse fill="#25275E" cx="973.348" cy="6.259" rx="5.576" ry="5.592"/>
					</g>
					<g>
						<polygon fill="#25275E" points="1096.182,13.162 1037.359,-71.309 1039.082,-72.516 1096.496,9.931 1152.375,-44.093 
							1197.18,-131.092 1199.048,-130.124 1154.083,-42.817 1153.959,-42.696 						"/>
					</g>
				</g>
				<g>
					<polygon fill="#25275E" points="1166.969,287.781 1140.32,209.478 1075.728,279.09 1028.966,207.073 1033.847,116.523 
						964.153,102.866 913.448,166.427 835.535,159.813 835.712,157.712 912.508,164.232 963.307,100.553 1036.045,114.806 
						1031.102,206.499 1076.021,275.679 1141.174,205.462 1168.958,287.1 					"/>
				</g>
				<g>
					<polygon fill="#25275E" points="999.04,268.024 997.18,267.042 1028.537,207.374 912.085,166.131 890.262,71.985 
						892.31,71.508 913.872,164.528 1031.531,206.198 					"/>
				</g>
				<g>
					<polygon fill="#25275E" points="1184.948,126.298 973.765,7.524 891.27,73.104 818.579,12.356 819.925,10.737 891.303,70.388 
						973.564,4.994 1182.085,122.271 1151.578,-46.684 1213.009,17.047 1286.565,14.916 1247.581,-73.693 1249.504,-74.545 
						1289.749,16.933 1212.143,19.18 1154.881,-40.225 					"/>
				</g>
				<g>
					<polygon fill="#25275E" points="1181.702,125.949 1287.398,15.196 1288.917,16.653 1187.788,122.62 1378.47,85.609 
						1408.372,-13.343 1410.384,-12.732 1380.115,87.437 1379.493,87.558 					"/>
				</g>
				<g>
					<path fill="#25275E" d="M1403.912,197.997l-0.169-0.009l-135.134-7.69l203.587-70.88l4.254,59.018L1403.912,197.997z
						 M1279.33,188.796l124.363,7.077l70.536-19.022l-3.932-54.541L1279.33,188.796z"/>
				</g>
				<g>
					<polygon fill="#25275E" points="1379.735,87.479 1378.85,85.567 1485.8,35.75 1492.708,-49.133 1494.804,-48.961 
						1487.796,37.144 					"/>
				</g>
				<g>
					<polygon fill="#25275E" points="1030.531,207.715 1029.538,205.857 1183.597,123.045 1273.739,188.083 1318.964,126.532 
						1320.655,127.783 1274.199,191.011 1183.435,125.524 					"/>
				</g>
				<g>
					<polygon fill="#25275E" points="1038.472,117.138 1036.638,116.107 1095.422,11.031 1097.255,12.062 					"/>
				</g>
			</g>
		</g>
	</g>
	<g>
		<g>
			<defs>
				<rect id="SVGID_39_" x="503.514" y="-14.996" width="525.499" height="526.999"/>
			</defs>
			<clipPath id="SVGID_40_">
				<use xlink:href="#SVGID_39_"  overflow="visible"/>
			</clipPath>
			<g clip-path="url(#SVGID_40_)">
				<g>
					<g>
						<polygon fill="#25275E" points="367.971,488.894 270.179,435.749 271.18,433.897 365.158,484.968 342.513,354.131 
							430.956,407.431 520.544,317.173 546.905,435.864 641.165,405.836 676.405,336.402 742.504,401.439 741.033,402.944 
							676.979,339.92 642.64,407.578 545.353,438.571 519.327,321.387 431.284,410.088 345.371,358.312 						"/>
					</g>
					<g>
						<ellipse fill="#25275E" cx="742.74" cy="403.68" rx="5.577" ry="5.593"/>
					</g>
					<g>
						<ellipse fill="#25275E" cx="676.436" cy="339.444" rx="5.577" ry="5.593"/>
					</g>
					<g>
						<ellipse fill="#25275E" cx="641.442" cy="406.553" rx="5.577" ry="5.593"/>
					</g>
					<g>
						<ellipse fill="#25275E" cx="519.884" cy="320.563" rx="5.576" ry="5.592"/>
					</g>
					<g>
						<ellipse fill="#25275E" cx="430.455" cy="408.81" rx="5.577" ry="5.592"/>
					</g>
					<g>
						<ellipse fill="#25275E" cx="546.692" cy="437.217" rx="5.577" ry="5.593"/>
					</g>
					<g>
						<ellipse fill="#25275E" cx="604.265" cy="497.811" rx="5.577" ry="5.592"/>
					</g>
					<g>
						<ellipse fill="#25275E" cx="489.239" cy="492.218" rx="5.577" ry="5.593"/>
					</g>
					<g>
						<ellipse fill="#25275E" cx="681.058" cy="496.716" rx="5.577" ry="5.592"/>
					</g>
					<g>
						<ellipse fill="#25275E" cx="771.919" cy="566.699" rx="5.577" ry="5.592"/>
					</g>
					<g>
						<ellipse fill="#25275E" cx="713.801" cy="607.128" rx="5.577" ry="5.592"/>
					</g>
					<g>
						<ellipse fill="#25275E" cx="616.117" cy="720.688" rx="5.577" ry="5.592"/>
					</g>
					<g>
						<ellipse fill="#25275E" cx="868.238" cy="658.316" rx="5.577" ry="5.592"/>
					</g>
					<g>
						<ellipse fill="#25275E" cx="864.964" cy="601.536" rx="5.577" ry="5.592"/>
					</g>
					<g>
						<ellipse fill="#25275E" cx="731.127" cy="729.735" rx="5.577" ry="5.593"/>
					</g>
					<g>
						<ellipse fill="#25275E" cx="719.616" cy="479.644" rx="5.577" ry="5.592"/>
					</g>
					<g>
						<ellipse fill="#25275E" cx="802.085" cy="467.624" rx="5.577" ry="5.592"/>
					</g>
					<g>
						<ellipse fill="#25275E" cx="886.656" cy="431.625" rx="5.577" ry="5.592"/>
					</g>
					<g>
						<ellipse fill="#25275E" cx="576.417" cy="604.956" rx="5.577" ry="5.592"/>
					</g>
					<g>
						<ellipse fill="#25275E" cx="591.015" cy="350.064" rx="5.577" ry="5.592"/>
					</g>
					<g>
						<ellipse fill="#25275E" cx="343.942" cy="355.656" rx="5.577" ry="5.592"/>
					</g>
					<g>
						<ellipse fill="#25275E" cx="270.68" cy="435.079" rx="5.577" ry="5.592"/>
					</g>
					<g>
						<ellipse fill="#25275E" cx="212.97" cy="492.218" rx="5.576" ry="5.593"/>
					</g>
					<g>
						<ellipse fill="#25275E" cx="230.979" cy="639.161" rx="5.577" ry="5.593"/>
					</g>
					<g>
						<ellipse fill="#25275E" cx="356.493" cy="583.613" rx="5.577" ry="5.592"/>
					</g>
					<g>
						<ellipse fill="#25275E" cx="428.511" cy="597.295" rx="5.577" ry="5.592"/>
					</g>
					<g>
						<ellipse fill="#25275E" cx="422.934" cy="688.142" rx="5.577" ry="5.592"/>
					</g>
					<g>
						<ellipse fill="#25275E" cx="392.101" cy="748.205" rx="5.577" ry="5.593"/>
					</g>
					<g>
						<ellipse fill="#25275E" cx="468.774" cy="758.056" rx="5.577" ry="5.592"/>
					</g>
					<g>
						<ellipse fill="#25275E" cx="533.851" cy="688.142" rx="5.577" ry="5.592"/>
					</g>
					<g>
						<ellipse fill="#25275E" cx="560.864" cy="768.112" rx="5.577" ry="5.593"/>
					</g>
					<g>
						<ellipse fill="#25275E" cx="366.248" cy="486.931" rx="5.577" ry="5.593"/>
					</g>
					<g>
						<polygon fill="#25275E" points="489.082,493.835 430.259,409.363 431.982,408.156 489.396,490.603 545.275,436.579 
							590.081,349.58 591.948,350.548 546.984,437.855 546.859,437.976 						"/>
					</g>
				</g>
				<g>
					<polygon fill="#25275E" points="559.869,768.452 533.219,690.15 468.628,759.762 421.867,687.745 426.747,597.195 
						357.053,583.539 306.348,647.1 228.434,640.484 228.612,638.385 305.408,644.905 356.207,581.225 428.944,595.478 
						424.002,687.171 468.921,756.351 534.074,686.134 561.859,767.771 					"/>
				</g>
				<g>
					<polygon fill="#25275E" points="391.94,748.696 390.08,747.714 421.438,688.046 304.985,646.804 283.163,552.657 
						285.21,552.179 306.772,645.201 424.431,686.871 					"/>
				</g>
				<g>
					<polygon fill="#25275E" points="577.848,606.97 366.665,488.196 284.17,553.776 283.514,553.228 211.479,493.029 
						212.824,491.409 284.203,551.06 366.464,485.666 574.985,602.943 544.478,433.987 605.909,497.718 679.465,495.588 
						640.48,406.978 642.404,406.127 682.65,497.605 605.043,499.853 547.781,440.447 					"/>
				</g>
				<g>
					<polygon fill="#25275E" points="574.601,606.621 680.298,495.867 681.817,497.325 580.688,603.292 771.37,566.281 
						801.272,467.328 803.284,467.94 773.014,568.108 772.392,568.229 					"/>
				</g>
				<g>
					<path fill="#25275E" d="M796.811,678.669l-0.169-0.01l-135.134-7.69l203.586-70.879l4.255,59.018L796.811,678.669z
						 M672.23,669.468l124.362,7.076l70.535-19.02l-3.931-54.542L672.23,669.468z"/>
				</g>
				<g>
					<polygon fill="#25275E" points="772.635,568.151 771.749,566.238 878.7,516.422 885.608,431.54 887.703,431.711 
						880.696,517.817 					"/>
				</g>
				<g>
					<polygon fill="#25275E" points="423.431,688.388 422.438,686.529 576.498,603.717 666.639,668.754 711.863,607.205 
						713.555,608.455 667.099,671.682 576.335,606.195 					"/>
				</g>
				<g>
					<polygon fill="#25275E" points="431.372,597.81 429.539,596.778 488.322,491.703 490.155,492.734 					"/>
				</g>
			</g>
		</g>
	</g>
	<g>
		<g>
			<defs>
				<rect id="SVGID_41_" x="503.514" y="-14.996" width="525.499" height="526.999"/>
			</defs>
			<clipPath id="SVGID_42_">
				<use xlink:href="#SVGID_41_"  overflow="visible"/>
			</clipPath>
			<g clip-path="url(#SVGID_42_)">
				<g>
					<g>
						<polygon fill="#25275E" points="836.429,589.473 835.83,587.451 938.293,556.922 830.028,480.464 930.147,455.436 
							929.856,328.085 1032.184,393.319 1077.664,305.244 1053.625,231.157 1146.221,230.272 1146.242,232.38 1056.511,233.237 
							1079.935,305.43 1079.732,305.822 1032.995,396.333 931.967,331.929 932.254,457.083 834.996,481.395 943.05,557.704 						
							"/>
					</g>
					<g>
						<path fill="#25275E" d="M1144.025,235.644c-2.178-2.184-2.178-5.725,0-7.909c2.178-2.184,5.709-2.184,7.886,0
							c2.178,2.184,2.178,5.725,0,7.909C1149.733,237.828,1146.203,237.828,1144.025,235.644z"/>
					</g>
					<g>
						<path fill="#25275E" d="M1051.848,237.24c-2.178-2.184-2.178-5.725,0-7.909c2.178-2.184,5.709-2.184,7.886,0
							c2.178,2.184,2.178,5.725,0,7.909C1057.557,239.424,1054.026,239.424,1051.848,237.24z"/>
					</g>
					<g>
						<path fill="#25275E" d="M1074.422,309.509c-2.178-2.184-2.178-5.725,0-7.909s5.709-2.184,7.886,0
							c2.178,2.184,2.178,5.725,0,7.909S1076.6,311.693,1074.422,309.509z"/>
					</g>
					<g>
						<path fill="#25275E" d="M927.836,334.904c-2.178-2.184-2.178-5.725,0-7.909s5.709-2.184,7.886,0
							c2.178,2.184,2.178,5.725,0,7.909C933.545,337.088,930.014,337.088,927.836,334.904z"/>
					</g>
					<g>
						<path fill="#25275E" d="M926.823,460.721c-2.178-2.184-2.178-5.725,0-7.909s5.709-2.184,7.886,0
							c2.178,2.184,2.178,5.725,0,7.909C932.532,462.905,929.001,462.905,926.823,460.721z"/>
					</g>
					<g>
						<path fill="#25275E" d="M1029.045,398.381c-2.178-2.184-2.178-5.725,0-7.909s5.709-2.184,7.886,0
							c2.178,2.184,2.178,5.725,0,7.909C1034.754,400.565,1031.223,400.565,1029.045,398.381z"/>
					</g>
					<g>
						<path fill="#25275E" d="M1112.479,400.401c-2.178-2.184-2.178-5.725,0-7.909s5.709-2.184,7.886,0
							c2.178,2.184,2.178,5.725,0,7.909C1118.188,402.585,1114.657,402.585,1112.479,400.401z"/>
					</g>
					<g>
						<path fill="#25275E" d="M1027.2,478.015c-2.178-2.184-2.178-5.725,0-7.909s5.709-2.184,7.886,0s2.178,5.725,0,7.909
							C1032.909,480.199,1029.378,480.199,1027.2,478.015z"/>
					</g>
					<g>
						<path fill="#25275E" d="M1166.008,345.171c-2.178-2.184-2.178-5.725,0-7.909s5.709-2.184,7.886,0s2.178,5.725,0,7.909
							S1168.186,347.355,1166.008,345.171z"/>
					</g>
					<g>
						<path fill="#25275E" d="M1279.601,330.224c-2.178-2.184-2.178-5.725,0-7.909s5.709-2.184,7.886,0s2.178,5.725,0,7.909
							C1285.31,332.408,1281.779,332.408,1279.601,330.224z"/>
					</g>
					<g>
						<path fill="#25275E" d="M1267.012,400.026c-2.178-2.184-2.178-5.725,0-7.909s5.709-2.184,7.886,0s2.178,5.725,0,7.909
							S1269.189,402.21,1267.012,400.026z"/>
					</g>
					<g>
						<path fill="#25275E" d="M1278.009,549.594c-2.178-2.184-2.178-5.725,0-7.909s5.709-2.184,7.886,0
							c2.178,2.184,2.178,5.725,0,7.909C1283.718,551.778,1280.187,551.778,1278.009,549.594z"/>
					</g>
					<g>
						<path fill="#25275E" d="M1412.307,326.705c-2.178-2.184-2.178-5.725,0-7.909s5.709-2.184,7.886,0
							c2.178,2.184,2.178,5.725,0,7.909C1418.016,328.889,1414.485,328.889,1412.307,326.705z"/>
					</g>
					<g>
						<path fill="#25275E" d="M1369.957,288.878c-2.178-2.184-2.178-5.725,0-7.909s5.709-2.184,7.886,0s2.178,5.725,0,7.909
							S1372.135,291.062,1369.957,288.878z"/>
					</g>
					<g>
						<path fill="#25275E" d="M1365.712,474.435c-2.178-2.184-2.178-5.725,0-7.909s5.709-2.184,7.886,0
							c2.178,2.184,2.178,5.725,0,7.909C1371.421,476.619,1367.89,476.619,1365.712,474.435z"/>
					</g>
					<g>
						<path fill="#25275E" d="M1230.452,237.879c-2.178-2.184-2.178-5.725,0-7.909c2.178-2.184,5.709-2.184,7.886,0
							c2.178,2.184,2.178,5.725,0,7.909S1232.63,240.063,1230.452,237.879z"/>
					</g>
					<g>
						<path fill="#25275E" d="M1265.492,153.35c-2.178-2.184-2.178-5.725,0-7.909c2.178-2.184,5.709-2.184,7.886,0
							c2.178,2.184,2.178,5.725,0,7.909C1271.201,155.534,1267.67,155.534,1265.492,153.35z"/>
					</g>
					<g>
						<path fill="#25275E" d="M1168.335,495.912c-2.178-2.184-2.178-5.725,0-7.909s5.709-2.184,7.886,0
							c2.178,2.184,2.178,5.725,0,7.909C1174.044,498.096,1170.513,498.096,1168.335,495.912z"/>
					</g>
					<g>
						<path fill="#25275E" d="M998.934,305.325c-2.178-2.184-2.178-5.725,0-7.909s5.709-2.184,7.886,0s2.178,5.725,0,7.909
							S1001.112,307.509,998.934,305.325z"/>
					</g>
					<g>
						<path fill="#25275E" d="M828.171,484.484c-2.178-2.184-2.178-5.725,0-7.909s5.709-2.184,7.886,0
							c2.178,2.184,2.178,5.725,0,7.909S830.349,486.668,828.171,484.484z"/>
					</g>
					<g>
						<path fill="#25275E" d="M832.367,592.597c-2.178-2.184-2.178-5.725,0-7.909s5.709-2.184,7.886,0
							c2.178,2.184,2.178,5.725,0,7.909C838.076,594.781,834.545,594.781,832.367,592.597z"/>
					</g>
					<g>
						<path fill="#25275E" d="M831.849,673.923c-2.178-2.184-2.178-5.725,0-7.909s5.709-2.184,7.886,0
							c2.178,2.184,2.178,5.725,0,7.909S834.026,676.107,831.849,673.923z"/>
					</g>
					<g>
						<path fill="#25275E" d="M948.191,765.057c-2.178-2.184-2.178-5.725,0-7.909s5.709-2.184,7.886,0
							c2.178,2.184,2.178,5.725,0,7.909C953.9,767.241,950.369,767.241,948.191,765.057z"/>
					</g>
					<g>
						<path fill="#25275E" d="M997.777,636.773c-2.178-2.184-2.178-5.725,0-7.909s5.709-2.184,7.886,0
							c2.178,2.184,2.178,5.725,0,7.909C1003.485,638.957,999.954,638.957,997.777,636.773z"/>
					</g>
					<g>
						<path fill="#25275E" d="M1058.348,595.379c-2.178-2.184-2.178-5.725,0-7.909s5.709-2.184,7.886,0
							c2.178,2.184,2.178,5.725,0,7.909C1064.056,597.563,1060.525,597.563,1058.348,595.379z"/>
					</g>
					<g>
						<path fill="#25275E" d="M1118.46,663.572c-2.178-2.184-2.178-5.725,0-7.909s5.709-2.184,7.886,0
							c2.178,2.184,2.178,5.725,0,7.909C1124.169,665.756,1120.638,665.756,1118.46,663.572z"/>
					</g>
					<g>
						<path fill="#25275E" d="M1139.008,727.907c-2.178-2.184-2.178-5.725,0-7.909s5.709-2.184,7.886,0
							c2.178,2.184,2.178,5.725,0,7.909C1144.717,730.091,1141.186,730.091,1139.008,727.907z"/>
					</g>
					<g>
						<path fill="#25275E" d="M1200.17,680.502c-2.178-2.184-2.178-5.725,0-7.909s5.709-2.184,7.886,0
							c2.178,2.184,2.178,5.725,0,7.909C1205.879,682.686,1202.348,682.686,1200.17,680.502z"/>
					</g>
					<g>
						<path fill="#25275E" d="M1196.89,584.918c-2.178-2.184-2.178-5.725,0-7.909s5.709-2.184,7.886,0
							c2.178,2.184,2.178,5.725,0,7.909C1202.599,587.102,1199.068,587.102,1196.89,584.918z"/>
					</g>
					<g>
						<path fill="#25275E" d="M1272.378,622.31c-2.178-2.184-2.178-5.725,0-7.909s5.708-2.184,7.886,0s2.178,5.725,0,7.909
							S1274.556,624.494,1272.378,622.31z"/>
					</g>
					<g>
						<path fill="#25275E" d="M936.505,561.492c-2.178-2.184-2.178-5.725,0-7.909s5.709-2.184,7.886,0
							c2.178,2.184,2.178,5.725,0,7.909S938.682,563.676,936.505,561.492z"/>
					</g>
					<g>
						<polygon fill="#25275E" points="1032.172,475.313 931.017,457.297 931.384,455.222 1030.115,472.806 1031.536,394.98 
							1001.876,301.69 1003.879,301.05 1033.644,394.671 						"/>
					</g>
				</g>
				<g>
					<polygon fill="#25275E" points="951.269,763.844 949.913,762.232 1008.813,712.385 999.834,631.334 1061.316,589.832 
						1122.474,658.173 1203.015,675.237 1199.575,579.385 1276.784,617.41 1275.858,619.302 1201.802,582.832 1205.212,677.858 
						1121.368,660.093 1121.139,659.837 1060.974,592.605 1002.063,632.369 1011.026,713.27 1010.598,713.633 					"/>
				</g>
				<g>
					<polygon fill="#25275E" points="1141.176,725.039 1121.277,660.61 1009.853,714.027 928.04,662.93 929.151,661.141 
						1009.986,711.627 1122.566,657.656 1143.183,724.415 					"/>
				</g>
				<g>
					<polygon fill="#25275E" points="835.308,671.599 835.118,669.499 927.65,661.064 939.708,556.49 1169.846,491.55 
						1029.146,393.713 1117.52,395.215 1168.03,341.548 1077.985,306.537 1078.745,304.571 1171.704,340.717 1118.411,397.339 
						1117.948,397.331 1036.034,395.938 1174.711,492.367 941.635,558.137 929.541,663.007 928.691,663.086 					"/>
				</g>
				<g>
					<polygon fill="#25275E" points="1172.169,494.422 1168.816,341.155 1170.918,341.11 1174.125,487.753 1282.861,326.363 
						1234.234,235.189 1236.088,234.195 1285.312,326.491 1284.957,327.017 					"/>
				</g>
				<g>
					<path fill="#25275E" d="M1278.992,478.295l93.981-194.488l44.621,38.716l-37.499,65.271l-0.126,0.113L1278.992,478.295z
						 M1373.669,287.2l-88.153,182.431l92.927-83.183l36.465-63.469L1373.669,287.2z"/>
				</g>
				<g>
					<polygon fill="#25275E" points="1285.074,326.789 1283.099,326.065 1323.601,214.998 1268.634,150.078 1270.237,148.713 
						1325.994,214.569 1325.785,215.145 					"/>
				</g>
				<g>
					<polygon fill="#25275E" points="1122.927,659.438 1120.915,658.828 1171.463,491.024 1281.059,473.09 1269.639,397.499 
						1271.716,397.184 1283.448,474.836 1173.095,492.893 					"/>
				</g>
				<g>
					<polygon fill="#25275E" points="1062.654,590.331 1030.131,474.345 1032.155,473.775 1064.678,589.761 					"/>
				</g>
			</g>
		</g>
	</g>
	<g>
		<g>
			<defs>
				<rect id="SVGID_43_" x="503.514" y="-14.996" width="525.499" height="526.999"/>
			</defs>
			<clipPath id="SVGID_44_">
				<use xlink:href="#SVGID_43_"  overflow="visible"/>
			</clipPath>
			<g clip-path="url(#SVGID_44_)">
				<g>
					<g>
						<polygon fill="#25275E" points="521.274,355.737 520.675,353.716 623.138,323.187 514.873,246.729 614.992,221.7 614.7,94.35 
							717.029,159.584 762.509,71.509 738.47,-2.578 829.34,-23.664 829.361,-21.556 741.356,-0.498 764.78,71.694 764.577,72.086 
							717.84,162.597 616.812,98.193 617.099,223.347 519.841,247.659 627.895,323.969 						"/>
					</g>
					<g>
						<path fill="#25275E" d="M827.144-18.292c-2.178-2.184-2.178-5.725,0-7.909s5.709-2.184,7.886,0
							c2.178,2.184,2.178,5.725,0,7.909C832.852-16.109,829.321-16.109,827.144-18.292z"/>
					</g>
					<g>
						<path fill="#25275E" d="M736.693,3.505c-2.178-2.184-2.178-5.725,0-7.909s5.709-2.184,7.886,0
							c2.178,2.184,2.178,5.725,0,7.909S738.871,5.689,736.693,3.505z"/>
					</g>
					<g>
						<path fill="#25275E" d="M759.267,75.773c-2.178-2.184-2.178-5.725,0-7.909s5.709-2.184,7.886,0
							c2.178,2.184,2.178,5.725,0,7.909C764.975,77.957,761.445,77.957,759.267,75.773z"/>
					</g>
					<g>
						<path fill="#25275E" d="M612.681,101.169c-2.178-2.184-2.178-5.725,0-7.909s5.709-2.184,7.886,0
							c2.178,2.184,2.178,5.725,0,7.909C618.39,103.353,614.859,103.353,612.681,101.169z"/>
					</g>
					<g>
						<path fill="#25275E" d="M611.668,226.986c-2.178-2.184-2.178-5.725,0-7.909c2.178-2.184,5.709-2.184,7.886,0
							c2.178,2.184,2.178,5.725,0,7.909C617.377,229.17,613.846,229.17,611.668,226.986z"/>
					</g>
					<g>
						<path fill="#25275E" d="M713.89,164.646c-2.178-2.184-2.178-5.725,0-7.909s5.709-2.184,7.886,0s2.178,5.725,0,7.909
							S716.068,166.83,713.89,164.646z"/>
					</g>
					<g>
						<path fill="#25275E" d="M797.324,166.665c-2.178-2.184-2.178-5.725,0-7.909c2.178-2.184,5.709-2.184,7.886,0
							c2.178,2.184,2.178,5.725,0,7.909C803.033,168.849,799.502,168.849,797.324,166.665z"/>
					</g>
					<g>
						<path fill="#25275E" d="M712.045,244.279c-2.178-2.184-2.178-5.725,0-7.909c2.178-2.184,5.709-2.184,7.886,0
							c2.178,2.184,2.178,5.725,0,7.909C717.754,246.463,714.223,246.463,712.045,244.279z"/>
					</g>
					<g>
						<path fill="#25275E" d="M850.853,111.436c-2.178-2.184-2.178-5.725,0-7.909s5.709-2.184,7.886,0
							c2.178,2.184,2.178,5.725,0,7.909C856.561,113.62,853.031,113.62,850.853,111.436z"/>
					</g>
					<g>
						<path fill="#25275E" d="M951.857,166.291c-2.178-2.184-2.178-5.725,0-7.909c2.178-2.184,5.709-2.184,7.886,0
							s2.178,5.725,0,7.909C957.565,168.475,954.034,168.475,951.857,166.291z"/>
					</g>
					<g>
						<path fill="#25275E" d="M962.854,315.858c-2.178-2.184-2.178-5.725,0-7.909s5.709-2.184,7.886,0
							c2.178,2.184,2.178,5.725,0,7.909C968.563,318.042,965.032,318.042,962.854,315.858z"/>
					</g>
					<g>
						<path fill="#25275E" d="M1097.152,92.97c-2.178-2.184-2.178-5.725,0-7.909s5.709-2.184,7.886,0
							c2.178,2.184,2.178,5.725,0,7.909C1102.861,95.154,1099.33,95.154,1097.152,92.97z"/>
					</g>
					<g>
						<path fill="#25275E" d="M1054.802,55.143c-2.178-2.184-2.178-5.725,0-7.909c2.178-2.184,5.709-2.184,7.886,0
							c2.178,2.184,2.178,5.725,0,7.909S1056.98,57.326,1054.802,55.143z"/>
					</g>
					<g>
						<path fill="#25275E" d="M1050.557,240.7c-2.178-2.184-2.178-5.725,0-7.909c2.178-2.184,5.709-2.184,7.886,0
							c2.178,2.184,2.178,5.725,0,7.909C1056.266,242.884,1052.735,242.884,1050.557,240.7z"/>
					</g>
					<g>
						<path fill="#25275E" d="M883.006,13.731c-2.178-2.184-2.178-5.725,0-7.909s5.709-2.184,7.886,0
							c2.178,2.184,2.178,5.725,0,7.909C888.715,15.915,885.184,15.915,883.006,13.731z"/>
					</g>
					<g>
						<path fill="#25275E" d="M853.18,262.177c-2.178-2.184-2.178-5.725,0-7.909c2.178-2.184,5.709-2.184,7.886,0
							c2.178,2.184,2.178,5.725,0,7.909C858.889,264.361,855.358,264.361,853.18,262.177z"/>
					</g>
					<g>
						<path fill="#25275E" d="M683.779,71.589c-2.178-2.184-2.178-5.725,0-7.909s5.709-2.184,7.886,0
							c2.178,2.184,2.178,5.725,0,7.909C689.488,73.773,685.957,73.773,683.779,71.589z"/>
					</g>
					<g>
						<path fill="#25275E" d="M513.016,250.749c-2.178-2.184-2.178-5.725,0-7.909c2.178-2.184,5.709-2.184,7.886,0
							c2.178,2.184,2.178,5.725,0,7.909C518.724,252.933,515.194,252.933,513.016,250.749z"/>
					</g>
					<g>
						<path fill="#25275E" d="M517.212,358.862c-2.178-2.184-2.178-5.725,0-7.909s5.709-2.184,7.886,0
							c2.178,2.184,2.178,5.725,0,7.909C522.921,361.046,519.39,361.046,517.212,358.862z"/>
					</g>
					<g>
						<path fill="#25275E" d="M516.694,440.188c-2.178-2.184-2.178-5.725,0-7.909s5.709-2.184,7.886,0
							c2.178,2.184,2.178,5.725,0,7.909S518.871,442.372,516.694,440.188z"/>
					</g>
					<g>
						<path fill="#25275E" d="M691.911,530.245c-2.178-2.184-2.178-5.725,0-7.909s5.709-2.184,7.886,0
							c2.178,2.184,2.178,5.725,0,7.909C697.619,532.43,694.088,532.43,691.911,530.245z"/>
					</g>
					<g>
						<path fill="#25275E" d="M682.622,403.038c-2.178-2.184-2.178-5.725,0-7.909s5.709-2.184,7.886,0
							c2.178,2.184,2.178,5.725,0,7.909S684.799,405.222,682.622,403.038z"/>
					</g>
					<g>
						<path fill="#25275E" d="M743.193,361.643c-2.178-2.184-2.178-5.725,0-7.909s5.709-2.184,7.886,0
							c2.178,2.184,2.178,5.725,0,7.909S745.37,363.827,743.193,361.643z"/>
					</g>
					<g>
						<path fill="#25275E" d="M803.305,429.836c-2.178-2.184-2.178-5.725,0-7.909s5.709-2.184,7.886,0
							c2.178,2.184,2.178,5.725,0,7.909C809.014,432.02,805.483,432.02,803.305,429.836z"/>
					</g>
					<g>
						<path fill="#25275E" d="M881.735,351.183c-2.178-2.184-2.178-5.725,0-7.909s5.709-2.184,7.886,0s2.178,5.725,0,7.909
							S883.913,353.367,881.735,351.183z"/>
					</g>
					<g>
						<path fill="#25275E" d="M993.001,427.685c-2.178-2.184-2.178-5.725,0-7.909s5.709-2.184,7.886,0
							c2.178,2.184,2.178,5.725,0,7.909C998.71,429.869,995.179,429.869,993.001,427.685z"/>
					</g>
					<g>
						<path fill="#25275E" d="M621.35,327.757c-2.178-2.184-2.178-5.725,0-7.909s5.709-2.184,7.886,0
							c2.178,2.184,2.178,5.725,0,7.909C627.058,329.94,623.527,329.94,621.35,327.757z"/>
					</g>
					<g>
						<polygon fill="#25275E" points="717.017,241.578 615.862,223.561 616.229,221.486 714.96,239.071 716.381,161.245 
							686.721,67.955 688.724,67.314 718.489,160.936 						"/>
					</g>
				</g>
				<g>
					<polygon fill="#25275E" points="694.988,529.032 693.633,527.421 719.616,479.744 684.679,397.598 746.161,356.096 
						807.319,424.437 885.851,429.57 884.42,345.65 998.297,422.405 997.371,424.297 886.647,349.096 888.048,432.19 
						806.213,426.358 805.984,426.102 745.818,358.869 686.908,398.634 721.828,480.629 721.4,480.993 					"/>
				</g>
				<g>
					<polygon fill="#25275E" points="831.772,481.347 806.121,426.875 720.655,481.387 612.885,429.195 613.996,427.406 
						720.789,478.987 807.411,423.921 833.78,480.723 					"/>
				</g>
				<g>
					<polygon fill="#25275E" points="520.153,437.863 519.963,435.764 612.495,427.329 624.553,322.754 854.691,257.814 
						713.99,159.978 802.365,161.479 852.874,107.813 762.831,72.802 763.59,70.836 856.549,106.981 803.256,163.604 
						802.793,163.596 720.879,162.203 859.556,258.631 626.48,324.401 614.386,429.272 613.535,429.35 					"/>
				</g>
				<g>
					<polyline fill="#25275E" points="857.014,260.687 853.661,107.42 855.763,107.375 858.97,254.017 					"/>
				</g>
				<g>
					<path fill="#25275E" d="M963.837,244.56l93.981-194.488l44.621,38.716l-37.499,65.271l-0.126,0.113L963.837,244.56z
						 M1058.514,53.464L970.36,235.895l92.927-83.183l36.465-63.469L1058.514,53.464z"/>
				</g>
				<g>
					<polyline fill="#25275E" points="961.443,102.832 886.148,10.459 887.751,9.094 963.837,102.402 963.627,102.979 					"/>
				</g>
				<g>
					<polygon fill="#25275E" points="807.772,425.702 805.76,425.093 856.308,257.288 965.904,239.355 954.484,163.763 
						956.561,163.449 968.293,241.101 857.94,259.157 					"/>
				</g>
				<g>
					<polygon fill="#25275E" points="747.499,356.596 714.976,240.61 717,240.039 749.523,356.025 					"/>
				</g>
			</g>
		</g>
	</g>
	<g>
		<g>
			<defs>
				<rect id="SVGID_45_" x="503.514" y="-14.996" width="525.499" height="526.999"/>
			</defs>
			<clipPath id="SVGID_46_">
				<use xlink:href="#SVGID_45_"  overflow="visible"/>
			</clipPath>
			<g clip-path="url(#SVGID_46_)">
				<g>
					<g>
						<polygon fill="#25275E" points="473.647,171.024 473.627,168.916 563.358,168.06 539.933,95.867 586.873,4.964 
							687.902,69.369 687.615,-55.785 784.872,-80.097 676.819,-156.407 783.44,-188.174 784.038,-186.154 681.576,-155.625 
							789.841,-79.167 689.721,-54.139 690.013,73.212 587.684,7.978 542.205,96.054 566.243,170.14 						"/>
					</g>
					<g>
						<path fill="#25275E" d="M475.844,165.653c2.178,2.184,2.178,5.725,0,7.909c-2.178,2.184-5.709,2.184-7.886,0
							s-2.178-5.725,0-7.909S473.666,163.469,475.844,165.653z"/>
					</g>
					<g>
						<path fill="#25275E" d="M568.021,164.057c2.178,2.184,2.178,5.725,0,7.909c-2.178,2.184-5.709,2.184-7.886,0
							c-2.178-2.184-2.178-5.725,0-7.909C562.312,161.873,565.843,161.873,568.021,164.057z"/>
					</g>
					<g>
						<path fill="#25275E" d="M545.447,91.788c2.178,2.184,2.178,5.725,0,7.909s-5.709,2.184-7.886,0
							c-2.178-2.184-2.178-5.725,0-7.909C539.738,89.604,543.269,89.604,545.447,91.788z"/>
					</g>
					<g>
						<path fill="#25275E" d="M692.032,66.393c2.178,2.184,2.178,5.725,0,7.909s-5.709,2.184-7.886,0
							c-2.178-2.184-2.178-5.725,0-7.909S689.855,64.209,692.032,66.393z"/>
					</g>
					<g>
						<path fill="#25275E" d="M693.045-59.424c2.178,2.184,2.178,5.725,0,7.909c-2.178,2.184-5.709,2.184-7.886,0
							c-2.178-2.184-2.178-5.725,0-7.909S690.868-61.608,693.045-59.424z"/>
					</g>
					<g>
						<path fill="#25275E" d="M590.824,2.916c2.178,2.184,2.178,5.725,0,7.909s-5.709,2.184-7.886,0s-2.178-5.725,0-7.909
							S588.646,0.732,590.824,2.916z"/>
					</g>
					<g>
						<path fill="#25275E" d="M507.389,0.896c2.178,2.184,2.178,5.725,0,7.909s-5.709,2.184-7.886,0s-2.178-5.725,0-7.909
							C501.681-1.288,505.212-1.288,507.389,0.896z"/>
					</g>
					<g>
						<path fill="#25275E" d="M592.669-76.717c2.178,2.184,2.178,5.725,0,7.909s-5.709,2.184-7.886,0
							c-2.178-2.184-2.178-5.725,0-7.909C586.96-78.901,590.491-78.901,592.669-76.717z"/>
					</g>
					<g>
						<path fill="#25275E" d="M453.861,56.126c2.178,2.184,2.178,5.725,0,7.909s-5.709,2.184-7.886,0
							c-2.178-2.184-2.178-5.725,0-7.909C448.152,53.942,451.683,53.942,453.861,56.126z"/>
					</g>
					<g>
						<path fill="#25275E" d="M340.267,71.073c2.178,2.184,2.178,5.725,0,7.909s-5.709,2.184-7.886,0
							c-2.178-2.184-2.178-5.725,0-7.909C334.559,68.889,338.09,68.889,340.267,71.073z"/>
					</g>
					<g>
						<path fill="#25275E" d="M352.857,1.271c2.178,2.184,2.178,5.725,0,7.909s-5.709,2.184-7.886,0s-2.178-5.725,0-7.909
							S350.679-0.913,352.857,1.271z"/>
					</g>
					<g>
						<path fill="#25275E" d="M341.859-148.297c2.178,2.184,2.178,5.725,0,7.909s-5.709,2.184-7.886,0s-2.178-5.725,0-7.909
							S339.682-150.481,341.859-148.297z"/>
					</g>
					<g>
						<path fill="#25275E" d="M207.561,74.592c2.178,2.184,2.178,5.725,0,7.909s-5.709,2.184-7.886,0
							c-2.178-2.184-2.178-5.725,0-7.909C201.853,72.408,205.384,72.408,207.561,74.592z"/>
					</g>
					<g>
						<path fill="#25275E" d="M249.911,112.419c2.178,2.184,2.178,5.725,0,7.909s-5.709,2.184-7.886,0
							c-2.178-2.184-2.178-5.725,0-7.909C244.203,110.235,247.734,110.235,249.911,112.419z"/>
					</g>
					<g>
						<path fill="#25275E" d="M254.156-73.138c2.178,2.184,2.178,5.725,0,7.909c-2.178,2.184-5.709,2.184-7.886,0
							c-2.178-2.184-2.178-5.725,0-7.909S251.978-75.322,254.156-73.138z"/>
					</g>
					<g>
						<path fill="#25275E" d="M389.417,163.418c2.178,2.184,2.178,5.725,0,7.909c-2.178,2.184-5.709,2.184-7.886,0
							c-2.178-2.184-2.178-5.725,0-7.909C383.708,161.234,387.239,161.234,389.417,163.418z"/>
					</g>
					<g>
						<path fill="#25275E" d="M354.376,247.947c2.178,2.184,2.178,5.725,0,7.909c-2.178,2.184-5.709,2.184-7.886,0
							c-2.178-2.184-2.178-5.725,0-7.909S352.198,245.763,354.376,247.947z"/>
					</g>
					<g>
						<path fill="#25275E" d="M451.533-94.615c2.178,2.184,2.178,5.725,0,7.909s-5.709,2.184-7.886,0
							c-2.178-2.184-2.178-5.725,0-7.909S449.356-96.799,451.533-94.615z"/>
					</g>
					<g>
						<path fill="#25275E" d="M620.934,95.973c2.178,2.184,2.178,5.725,0,7.909s-5.709,2.184-7.886,0
							c-2.178-2.184-2.178-5.725,0-7.909S618.756,93.789,620.934,95.973z"/>
					</g>
					<g>
						<path fill="#25275E" d="M791.698-83.187c2.178,2.184,2.178,5.725,0,7.909s-5.709,2.184-7.886,0
							c-2.178-2.184-2.178-5.725,0-7.909C785.989-85.371,789.52-85.371,791.698-83.187z"/>
					</g>
					<g>
						<path fill="#25275E" d="M787.501-191.3c2.178,2.184,2.178,5.725,0,7.909c-2.178,2.184-5.709,2.184-7.886,0
							c-2.178-2.184-2.178-5.725,0-7.909C781.793-193.484,785.324-193.484,787.501-191.3z"/>
					</g>
					<g>
						<path fill="#25275E" d="M788.02-272.626c2.178,2.184,2.178,5.725,0,7.909s-5.709,2.184-7.886,0
							c-2.178-2.184-2.178-5.725,0-7.909C782.311-274.81,785.842-274.81,788.02-272.626z"/>
					</g>
					<g>
						<path fill="#25275E" d="M671.677-363.76c2.178,2.184,2.178,5.725,0,7.909s-5.709,2.184-7.886,0
							c-2.178-2.184-2.178-5.725,0-7.909S669.5-365.944,671.677-363.76z"/>
					</g>
					<g>
						<path fill="#25275E" d="M622.092-235.476c2.178,2.184,2.178,5.725,0,7.909c-2.178,2.184-5.709,2.184-7.886,0
							c-2.178-2.184-2.178-5.725,0-7.909C616.383-237.66,619.914-237.66,622.092-235.476z"/>
					</g>
					<g>
						<path fill="#25275E" d="M561.521-194.081c2.178,2.184,2.178,5.725,0,7.909c-2.178,2.184-5.709,2.184-7.886,0
							s-2.178-5.725,0-7.909S559.343-196.265,561.521-194.081z"/>
					</g>
					<g>
						<path fill="#25275E" d="M501.408-262.275c2.178,2.184,2.178,5.725,0,7.909c-2.178,2.184-5.709,2.184-7.886,0
							c-2.177-2.184-2.178-5.725,0-7.909C495.7-264.459,499.23-264.459,501.408-262.275z"/>
					</g>
					<g>
						<path fill="#25275E" d="M480.86-326.61c2.178,2.184,2.178,5.725,0,7.909s-5.709,2.184-7.886,0
							c-2.178-2.184-2.178-5.725,0-7.909C475.152-328.794,478.682-328.794,480.86-326.61z"/>
					</g>
					<g>
						<path fill="#25275E" d="M419.698-279.205c2.178,2.184,2.178,5.725,0,7.909s-5.709,2.184-7.886,0s-2.178-5.725,0-7.909
							S417.521-281.389,419.698-279.205z"/>
					</g>
					<g>
						<path fill="#25275E" d="M422.978-183.621c2.178,2.184,2.178,5.725,0,7.909c-2.178,2.184-5.709,2.184-7.886,0
							c-2.178-2.184-2.178-5.725,0-7.909C417.27-185.805,420.801-185.805,422.978-183.621z"/>
					</g>
					<g>
						<path fill="#25275E" d="M347.491-221.013c2.178,2.184,2.178,5.725,0,7.909c-2.178,2.184-5.709,2.184-7.886,0
							c-2.178-2.184-2.178-5.725,0-7.909C341.782-223.197,345.313-223.197,347.491-221.013z"/>
					</g>
					<g>
						<path fill="#25275E" d="M683.364-160.195c2.178,2.184,2.178,5.725,0,7.909c-2.178,2.184-5.709,2.184-7.886,0
							c-2.178-2.184-2.178-5.725,0-7.909C677.655-162.379,681.186-162.379,683.364-160.195z"/>
					</g>
					<g>
						<polygon fill="#25275E" points="615.99,100.247 586.224,6.625 587.697,-74.017 688.852,-55.999 688.484,-53.924 
							589.754,-71.509 588.333,6.317 617.992,99.607 						"/>
					</g>
				</g>
				<g>
					<polygon fill="#25275E" points="420.294,-178.089 343.084,-216.112 344.011,-218.004 418.066,-181.534 414.656,-276.561 
						498.501,-258.797 498.729,-258.54 558.895,-191.308 617.806,-231.072 608.842,-311.973 668.6,-362.546 669.956,-360.935 
						611.055,-311.087 620.035,-230.037 558.552,-188.535 497.394,-256.876 416.854,-273.94 					"/>
				</g>
				<g>
					<polygon fill="#25275E" points="497.303,-256.359 476.685,-323.118 478.693,-323.741 498.591,-259.313 610.016,-312.73 
						691.829,-261.633 690.717,-259.844 609.882,-310.33 					"/>
				</g>
				<g>
					<polygon fill="#25275E" points="541.123,96.725 448.165,60.581 501.456,3.959 583.834,5.358 445.158,-91.07 678.234,-156.839 
						690.327,-261.711 784.561,-270.302 784.751,-268.202 692.219,-259.767 680.16,-155.193 450.022,-90.252 590.723,7.584 
						502.348,6.082 451.839,59.748 541.883,94.76 					"/>
				</g>
				<g>
					<polygon fill="#25275E" points="383.781,167.102 334.556,74.807 334.911,74.28 447.7,-93.125 451.053,60.142 448.951,60.188 
						445.744,-86.455 337.007,74.934 385.634,166.107 					"/>
				</g>
				<g>
					<path fill="#25275E" d="M246.896,117.489l-44.621-38.714l37.499-65.271l0.126-0.113l100.976-90.389L246.896,117.489z
						 M204.962,78.318l41.236,35.779l88.155-182.431L241.426,14.85L204.962,78.318z"/>
				</g>
				<g>
					<polygon fill="#25275E" points="349.632,252.584 293.874,186.728 334.795,74.508 336.769,75.232 296.269,186.299 
						351.234,251.219 					"/>
				</g>
				<g>
					<polygon fill="#25275E" points="348.152,4.114 336.42,-73.539 446.774,-91.595 496.941,-258.141 498.953,-257.532 
						448.407,-89.726 447.76,-89.621 338.81,-71.794 350.23,3.798 					"/>
				</g>
				<g>
					<polygon fill="#25275E" points="587.713,-72.478 555.191,-188.463 557.215,-189.034 589.737,-73.048 					"/>
				</g>
			</g>
		</g>
	</g>
</g>
<rect x="-57.882" y="-19.896" display="none" opacity="0.4" fill="#141327" enable-background="new    " width="1103.945" height="538.473"/>
</svg>
